<svg width="445" height="470" viewBox="0 0 445 470" fill="none" xmlns="http://www.w3.org/2000/svg">
<g filter="url(#filter0_bdddd_471_17922)">
<path d="M202.128 109.041C211.452 103.653 222.943 103.653 232.267 109.041L314.345 156.47C323.658 161.852 329.395 171.792 329.395 182.549V277.451C329.395 288.208 323.658 298.148 314.345 303.53L232.267 350.959C222.943 356.347 211.452 356.347 202.128 350.959L120.05 303.53C110.737 298.148 105 288.208 105 277.451V182.549C105 171.792 110.737 161.852 120.05 156.47L202.128 109.041Z" fill="#242424" fill-opacity="0.4" shape-rendering="crispEdges"/>
<path d="M202.128 109.041C211.452 103.653 222.943 103.653 232.267 109.041L314.345 156.47C323.658 161.852 329.395 171.792 329.395 182.549V277.451C329.395 288.208 323.658 298.148 314.345 303.53L232.267 350.959C222.943 356.347 211.452 356.347 202.128 350.959L120.05 303.53C110.737 298.148 105 288.208 105 277.451V182.549C105 171.792 110.737 161.852 120.05 156.47L202.128 109.041Z" fill="url(#paint0_radial_471_17922)" fill-opacity="0.4" shape-rendering="crispEdges"/>
<path d="M202.128 109.041C211.452 103.653 222.943 103.653 232.267 109.041L314.345 156.47C323.658 161.852 329.395 171.792 329.395 182.549V277.451C329.395 288.208 323.658 298.148 314.345 303.53L232.267 350.959C222.943 356.347 211.452 356.347 202.128 350.959L120.05 303.53C110.737 298.148 105 288.208 105 277.451V182.549C105 171.792 110.737 161.852 120.05 156.47L202.128 109.041Z" fill="url(#paint1_radial_471_17922)" fill-opacity="0.55" shape-rendering="crispEdges"/>
</g>
<g filter="url(#filter1_d_471_17922)">
<path d="M228.698 137.903C231.926 137.903 234.909 139.626 236.523 142.421L247.872 162.079C249.486 164.874 249.486 168.319 247.872 171.115L236.523 190.772C234.909 193.568 231.926 195.29 228.698 195.29L205.999 195.29C202.771 195.29 199.788 193.568 198.174 190.772L186.825 171.115C185.211 168.319 185.211 164.874 186.825 162.079L198.174 142.421C199.788 139.626 202.771 137.903 205.999 137.903L228.698 137.903Z" fill="#FF006E"/>
</g>
<path d="M228.698 201.235C231.926 201.235 234.909 202.958 236.523 205.753L247.872 225.411C249.486 228.206 249.486 231.651 247.872 234.447L236.523 254.104C234.909 256.9 231.926 258.622 228.698 258.622L205.999 258.622C202.771 258.622 199.788 256.9 198.174 254.104L186.825 234.447C185.211 231.651 185.211 228.206 186.825 225.411L198.174 205.753C199.788 202.958 202.771 201.235 205.999 201.235L228.698 201.235Z" fill="white"/>
<g filter="url(#filter2_d_471_17922)">
<path d="M283.517 169.609C286.745 169.609 289.728 171.332 291.342 174.127L302.692 193.785C304.306 196.58 304.306 200.025 302.692 202.821L291.342 222.478C289.728 225.274 286.745 226.996 283.517 226.996L260.819 226.996C257.59 226.996 254.607 225.274 252.993 222.478L241.644 202.821C240.03 200.025 240.03 196.58 241.644 193.785L252.993 174.127C254.607 171.332 257.59 169.609 260.819 169.609L283.517 169.609Z" fill="#00FFFF"/>
</g>
<path d="M173.878 169.609C177.107 169.609 180.09 171.332 181.704 174.127L193.053 193.785C194.667 196.58 194.667 200.025 193.053 202.821L181.704 222.478C180.09 225.274 177.107 226.996 173.878 226.996L151.18 226.996C147.952 226.996 144.969 225.274 143.355 222.478L132.006 202.821C130.391 200.025 130.391 196.58 132.006 193.785L143.355 174.127C144.969 171.332 147.952 169.609 151.18 169.609L173.878 169.609Z" fill="white"/>
<g filter="url(#filter3_d_471_17922)">
<path d="M228.698 264.487C231.926 264.487 234.909 266.21 236.523 269.005L247.872 288.663C249.486 291.458 249.486 294.903 247.872 297.699L236.523 317.356C234.909 320.152 231.926 321.874 228.698 321.874L205.999 321.874C202.771 321.874 199.788 320.152 198.174 317.356L186.825 297.699C185.211 294.903 185.211 291.458 186.825 288.663L198.174 269.005C199.788 266.21 202.771 264.487 205.999 264.487L228.698 264.487Z" fill="#FF006E"/>
</g>
<path d="M283.517 232.861C286.745 232.861 289.728 234.584 291.342 237.379L302.692 257.037C304.306 259.832 304.306 263.277 302.692 266.073L291.342 285.73C289.728 288.526 286.745 290.248 283.517 290.248L260.819 290.248C257.59 290.248 254.607 288.526 252.993 285.73L241.644 266.073C240.03 263.277 240.03 259.832 241.644 257.037L252.993 237.379C254.607 234.584 257.59 232.861 260.819 232.861L283.517 232.861Z" fill="white"/>
<g filter="url(#filter4_d_471_17922)">
<path d="M173.878 232.861C177.107 232.861 180.09 234.584 181.704 237.379L193.053 257.037C194.667 259.832 194.667 263.277 193.053 266.073L181.704 285.73C180.09 288.526 177.107 290.248 173.878 290.248L151.18 290.248C147.952 290.248 144.969 288.526 143.355 285.73L132.006 266.073C130.391 263.277 130.391 259.832 132.006 257.037L143.355 237.379C144.969 234.584 147.952 232.861 151.18 232.861L173.878 232.861Z" fill="#00FFFF"/>
</g>
<defs>
<filter id="filter0_bdddd_471_17922" x="0" y="0" width="444.395" height="470" filterUnits="userSpaceOnUse" color-interpolation-filters="sRGB">
<feFlood flood-opacity="0" result="BackgroundImageFix"/>
<feGaussianBlur in="BackgroundImageFix" stdDeviation="10"/>
<feComposite in2="SourceAlpha" operator="in" result="effect1_backgroundBlur_471_17922"/>
<feColorMatrix in="SourceAlpha" type="matrix" values="0 0 0 0 0 0 0 0 0 0 0 0 0 0 0 0 0 0 127 0" result="hardAlpha"/>
<feOffset dx="30" dy="30"/>
<feGaussianBlur stdDeviation="42.5"/>
<feComposite in2="hardAlpha" operator="out"/>
<feColorMatrix type="matrix" values="0 0 0 0 1 0 0 0 0 0 0 0 0 0 0.431373 0 0 0 0.4 0"/>
<feBlend mode="normal" in2="effect1_backgroundBlur_471_17922" result="effect2_dropShadow_471_17922"/>
<feColorMatrix in="SourceAlpha" type="matrix" values="0 0 0 0 0 0 0 0 0 0 0 0 0 0 0 0 0 0 127 0" result="hardAlpha"/>
<feOffset dx="-20" dy="-20"/>
<feGaussianBlur stdDeviation="42.5"/>
<feComposite in2="hardAlpha" operator="out"/>
<feColorMatrix type="matrix" values="0 0 0 0 0 0 0 0 0 1 0 0 0 0 1 0 0 0 0.37 0"/>
<feBlend mode="normal" in2="effect2_dropShadow_471_17922" result="effect3_dropShadow_471_17922"/>
<feColorMatrix in="SourceAlpha" type="matrix" values="0 0 0 0 0 0 0 0 0 0 0 0 0 0 0 0 0 0 127 0" result="hardAlpha"/>
<feOffset dx="-1" dy="-1"/>
<feComposite in2="hardAlpha" operator="out"/>
<feColorMatrix type="matrix" values="0 0 0 0 1 0 0 0 0 1 0 0 0 0 1 0 0 0 0.25 0"/>
<feBlend mode="normal" in2="effect3_dropShadow_471_17922" result="effect4_dropShadow_471_17922"/>
<feColorMatrix in="SourceAlpha" type="matrix" values="0 0 0 0 0 0 0 0 0 0 0 0 0 0 0 0 0 0 127 0" result="hardAlpha"/>
<feOffset dx="1" dy="1"/>
<feComposite in2="hardAlpha" operator="out"/>
<feColorMatrix type="matrix" values="0 0 0 0 0 0 0 0 0 0 0 0 0 0 0 0 0 0 0.4 0"/>
<feBlend mode="normal" in2="effect4_dropShadow_471_17922" result="effect5_dropShadow_471_17922"/>
<feBlend mode="normal" in="SourceGraphic" in2="effect5_dropShadow_471_17922" result="shape"/>
</filter>
<filter id="filter1_d_471_17922" x="165.614" y="122.903" width="103.469" height="97.3867" filterUnits="userSpaceOnUse" color-interpolation-filters="sRGB">
<feFlood flood-opacity="0" result="BackgroundImageFix"/>
<feColorMatrix in="SourceAlpha" type="matrix" values="0 0 0 0 0 0 0 0 0 0 0 0 0 0 0 0 0 0 127 0" result="hardAlpha"/>
<feOffset dy="5"/>
<feGaussianBlur stdDeviation="10"/>
<feComposite in2="hardAlpha" operator="out"/>
<feColorMatrix type="matrix" values="0 0 0 0 1 0 0 0 0 0 0 0 0 0 0.431373 0 0 0 0.33 0"/>
<feBlend mode="normal" in2="BackgroundImageFix" result="effect1_dropShadow_471_17922"/>
<feBlend mode="normal" in="SourceGraphic" in2="effect1_dropShadow_471_17922" result="shape"/>
</filter>
<filter id="filter2_d_471_17922" x="220.434" y="154.609" width="103.469" height="97.3867" filterUnits="userSpaceOnUse" color-interpolation-filters="sRGB">
<feFlood flood-opacity="0" result="BackgroundImageFix"/>
<feColorMatrix in="SourceAlpha" type="matrix" values="0 0 0 0 0 0 0 0 0 0 0 0 0 0 0 0 0 0 127 0" result="hardAlpha"/>
<feOffset dy="5"/>
<feGaussianBlur stdDeviation="10"/>
<feComposite in2="hardAlpha" operator="out"/>
<feColorMatrix type="matrix" values="0 0 0 0 0 0 0 0 0 1 0 0 0 0 1 0 0 0 0.3 0"/>
<feBlend mode="normal" in2="BackgroundImageFix" result="effect1_dropShadow_471_17922"/>
<feBlend mode="normal" in="SourceGraphic" in2="effect1_dropShadow_471_17922" result="shape"/>
</filter>
<filter id="filter3_d_471_17922" x="165.614" y="249.487" width="103.469" height="97.3867" filterUnits="userSpaceOnUse" color-interpolation-filters="sRGB">
<feFlood flood-opacity="0" result="BackgroundImageFix"/>
<feColorMatrix in="SourceAlpha" type="matrix" values="0 0 0 0 0 0 0 0 0 0 0 0 0 0 0 0 0 0 127 0" result="hardAlpha"/>
<feOffset dy="5"/>
<feGaussianBlur stdDeviation="10"/>
<feComposite in2="hardAlpha" operator="out"/>
<feColorMatrix type="matrix" values="0 0 0 0 1 0 0 0 0 0 0 0 0 0 0.431373 0 0 0 0.33 0"/>
<feBlend mode="normal" in2="BackgroundImageFix" result="effect1_dropShadow_471_17922"/>
<feBlend mode="normal" in="SourceGraphic" in2="effect1_dropShadow_471_17922" result="shape"/>
</filter>
<filter id="filter4_d_471_17922" x="110.795" y="217.861" width="103.469" height="97.3867" filterUnits="userSpaceOnUse" color-interpolation-filters="sRGB">
<feFlood flood-opacity="0" result="BackgroundImageFix"/>
<feColorMatrix in="SourceAlpha" type="matrix" values="0 0 0 0 0 0 0 0 0 0 0 0 0 0 0 0 0 0 127 0" result="hardAlpha"/>
<feOffset dy="5"/>
<feGaussianBlur stdDeviation="10"/>
<feComposite in2="hardAlpha" operator="out"/>
<feColorMatrix type="matrix" values="0 0 0 0 0 0 0 0 0 1 0 0 0 0 1 0 0 0 0.3 0"/>
<feBlend mode="normal" in2="BackgroundImageFix" result="effect1_dropShadow_471_17922"/>
<feBlend mode="normal" in="SourceGraphic" in2="effect1_dropShadow_471_17922" result="shape"/>
</filter>
<radialGradient id="paint0_radial_471_17922" cx="0" cy="0" r="1" gradientUnits="userSpaceOnUse" gradientTransform="translate(167.322 184.791) rotate(22.6199) scale(116.618 145.129)">
<stop stop-color="#00FFFF"/>
<stop offset="1" stop-color="#00FFFF" stop-opacity="0"/>
</radialGradient>
<radialGradient id="paint1_radial_471_17922" cx="0" cy="0" r="1" gradientUnits="userSpaceOnUse" gradientTransform="translate(272.609 276.858) rotate(-142.367) scale(127.583 166.631)">
<stop stop-color="#FF006E"/>
<stop offset="1" stop-color="#FF006E" stop-opacity="0"/>
</radialGradient>
</defs>
</svg>
