<svg width="445" height="470" viewBox="0 0 445 470" fill="none" xmlns="http://www.w3.org/2000/svg">
<g filter="url(#filter0_bdddd_471_18103)">
<path d="M202.522 109.041C211.846 103.653 223.338 103.653 232.662 109.041L314.739 156.47C324.053 161.852 329.79 171.792 329.79 182.549V277.451C329.79 288.208 324.053 298.148 314.739 303.53L232.662 350.959C223.338 356.347 211.846 356.347 202.522 350.959L120.445 303.53C111.131 298.148 105.395 288.208 105.395 277.451V182.549C105.395 171.792 111.131 161.852 120.445 156.47L202.522 109.041Z" fill="#242424" fill-opacity="0.8" shape-rendering="crispEdges"/>
<path d="M202.522 109.041C211.846 103.653 223.338 103.653 232.662 109.041L314.739 156.47C324.053 161.852 329.79 171.792 329.79 182.549V277.451C329.79 288.208 324.053 298.148 314.739 303.53L232.662 350.959C223.338 356.347 211.846 356.347 202.522 350.959L120.445 303.53C111.131 298.148 105.395 288.208 105.395 277.451V182.549C105.395 171.792 111.131 161.852 120.445 156.47L202.522 109.041Z" fill="url(#paint0_radial_471_18103)" fill-opacity="0.4" shape-rendering="crispEdges"/>
<path d="M202.522 109.041C211.846 103.653 223.338 103.653 232.662 109.041L314.739 156.47C324.053 161.852 329.79 171.792 329.79 182.549V277.451C329.79 288.208 324.053 298.148 314.739 303.53L232.662 350.959C223.338 356.347 211.846 356.347 202.522 350.959L120.445 303.53C111.131 298.148 105.395 288.208 105.395 277.451V182.549C105.395 171.792 111.131 161.852 120.445 156.47L202.522 109.041Z" fill="url(#paint1_radial_471_18103)" fill-opacity="0.5" shape-rendering="crispEdges"/>
</g>
<path d="M229.091 137.903C232.319 137.903 235.302 139.626 236.917 142.421L248.266 162.079C249.88 164.874 249.88 168.319 248.266 171.115L236.917 190.772C235.302 193.568 232.319 195.29 229.091 195.29L206.393 195.29C203.165 195.29 200.182 193.568 198.568 190.772L187.218 171.115C185.604 168.319 185.604 164.874 187.218 162.079L198.568 142.421C200.182 139.626 203.165 137.903 206.393 137.903L229.091 137.903Z" fill="#FF006E"/>
<path d="M229.091 201.235C232.319 201.235 235.302 202.958 236.917 205.753L248.266 225.411C249.88 228.206 249.88 231.651 248.266 234.447L236.917 254.104C235.302 256.9 232.319 258.622 229.091 258.622L206.393 258.622C203.165 258.622 200.182 256.9 198.568 254.104L187.218 234.447C185.604 231.651 185.604 228.206 187.218 225.411L198.568 205.753C200.182 202.958 203.165 201.235 206.393 201.235L229.091 201.235Z" fill="#FF006E" fill-opacity="0.4"/>
<path d="M283.911 169.609C287.14 169.609 290.123 171.332 291.737 174.127L303.086 193.785C304.7 196.58 304.7 200.025 303.086 202.821L291.737 222.478C290.123 225.274 287.14 226.996 283.911 226.996L261.213 226.996C257.985 226.996 255.002 225.274 253.388 222.478L242.039 202.821C240.425 200.025 240.425 196.58 242.039 193.785L253.388 174.127C255.002 171.332 257.985 169.609 261.213 169.609L283.911 169.609Z" fill="#FF006E"/>
<path d="M174.273 169.609C177.501 169.609 180.484 171.332 182.098 174.127L193.447 193.785C195.062 196.58 195.062 200.025 193.447 202.821L182.098 222.478C180.484 225.274 177.501 226.996 174.273 226.996L151.575 226.996C148.346 226.996 145.363 225.274 143.749 222.478L132.4 202.821C130.786 200.025 130.786 196.58 132.4 193.785L143.749 174.127C145.363 171.332 148.346 169.609 151.575 169.609L174.273 169.609Z" fill="#FF006E"/>
<path d="M229.091 264.487C232.319 264.487 235.302 266.21 236.917 269.005L248.266 288.663C249.88 291.458 249.88 294.903 248.266 297.699L236.917 317.356C235.302 320.152 232.319 321.874 229.091 321.874L206.393 321.874C203.165 321.874 200.182 320.152 198.568 317.356L187.218 297.699C185.604 294.903 185.604 291.458 187.218 288.663L198.568 269.005C200.182 266.21 203.165 264.487 206.393 264.487L229.091 264.487Z" fill="#FF006E"/>
<path d="M283.911 232.861C287.14 232.861 290.123 234.584 291.737 237.379L303.086 257.037C304.7 259.832 304.7 263.277 303.086 266.073L291.737 285.73C290.123 288.526 287.14 290.248 283.911 290.248L261.213 290.248C257.985 290.248 255.002 288.526 253.388 285.73L242.039 266.073C240.425 263.277 240.425 259.832 242.039 257.037L253.388 237.379C255.002 234.584 257.985 232.861 261.213 232.861L283.911 232.861Z" fill="#FF006E"/>
<path d="M174.273 232.861C177.501 232.861 180.484 234.584 182.098 237.379L193.447 257.037C195.062 259.832 195.062 263.277 193.447 266.073L182.098 285.73C180.484 288.526 177.501 290.248 174.273 290.248L151.575 290.248C148.346 290.248 145.363 288.526 143.749 285.73L132.4 266.073C130.786 263.277 130.786 259.832 132.4 257.037L143.749 237.379C145.363 234.584 148.346 232.861 151.575 232.861L174.273 232.861Z" fill="#FF006E"/>
<defs>
<filter id="filter0_bdddd_471_18103" x="0.394531" y="0" width="444.395" height="470" filterUnits="userSpaceOnUse" color-interpolation-filters="sRGB">
<feFlood flood-opacity="0" result="BackgroundImageFix"/>
<feGaussianBlur in="BackgroundImageFix" stdDeviation="10"/>
<feComposite in2="SourceAlpha" operator="in" result="effect1_backgroundBlur_471_18103"/>
<feColorMatrix in="SourceAlpha" type="matrix" values="0 0 0 0 0 0 0 0 0 0 0 0 0 0 0 0 0 0 127 0" result="hardAlpha"/>
<feOffset dx="30" dy="30"/>
<feGaussianBlur stdDeviation="42.5"/>
<feComposite in2="hardAlpha" operator="out"/>
<feColorMatrix type="matrix" values="0 0 0 0 1 0 0 0 0 0 0 0 0 0 0.431373 0 0 0 0.37 0"/>
<feBlend mode="normal" in2="effect1_backgroundBlur_471_18103" result="effect2_dropShadow_471_18103"/>
<feColorMatrix in="SourceAlpha" type="matrix" values="0 0 0 0 0 0 0 0 0 0 0 0 0 0 0 0 0 0 127 0" result="hardAlpha"/>
<feOffset dx="-20" dy="-20"/>
<feGaussianBlur stdDeviation="42.5"/>
<feComposite in2="hardAlpha" operator="out"/>
<feColorMatrix type="matrix" values="0 0 0 0 1 0 0 0 0 0 0 0 0 0 0.431373 0 0 0 0.37 0"/>
<feBlend mode="normal" in2="effect2_dropShadow_471_18103" result="effect3_dropShadow_471_18103"/>
<feColorMatrix in="SourceAlpha" type="matrix" values="0 0 0 0 0 0 0 0 0 0 0 0 0 0 0 0 0 0 127 0" result="hardAlpha"/>
<feOffset dx="-1" dy="-1"/>
<feComposite in2="hardAlpha" operator="out"/>
<feColorMatrix type="matrix" values="0 0 0 0 1 0 0 0 0 1 0 0 0 0 1 0 0 0 0.25 0"/>
<feBlend mode="normal" in2="effect3_dropShadow_471_18103" result="effect4_dropShadow_471_18103"/>
<feColorMatrix in="SourceAlpha" type="matrix" values="0 0 0 0 0 0 0 0 0 0 0 0 0 0 0 0 0 0 127 0" result="hardAlpha"/>
<feOffset dx="1" dy="1"/>
<feComposite in2="hardAlpha" operator="out"/>
<feColorMatrix type="matrix" values="0 0 0 0 0 0 0 0 0 0 0 0 0 0 0 0 0 0 0.4 0"/>
<feBlend mode="normal" in2="effect4_dropShadow_471_18103" result="effect5_dropShadow_471_18103"/>
<feBlend mode="normal" in="SourceGraphic" in2="effect5_dropShadow_471_18103" result="shape"/>
</filter>
<radialGradient id="paint0_radial_471_18103" cx="0" cy="0" r="1" gradientUnits="userSpaceOnUse" gradientTransform="translate(167.717 184.791) rotate(22.6199) scale(116.618 145.129)">
<stop stop-color="#FF006E"/>
<stop offset="1" stop-color="#FF006E" stop-opacity="0"/>
</radialGradient>
<radialGradient id="paint1_radial_471_18103" cx="0" cy="0" r="1" gradientUnits="userSpaceOnUse" gradientTransform="translate(273.004 276.858) rotate(-142.367) scale(127.583 166.631)">
<stop stop-color="#FF006E"/>
<stop offset="1" stop-color="#FF006E" stop-opacity="0"/>
</radialGradient>
</defs>
</svg>
