<svg width="1615" height="433" viewBox="0 0 1615 433" fill="none" xmlns="http://www.w3.org/2000/svg">
<g filter="url(#filter0_bdddd_299_2184)">
<path d="M198.859 102.279C208.734 96.5735 220.903 96.5735 230.778 102.279L317.698 152.507C327.562 158.206 333.637 168.733 333.637 180.125V280.628C333.637 292.019 327.562 302.546 317.698 308.246L230.778 358.473C220.903 364.179 208.734 364.179 198.859 358.473L111.938 308.246C102.075 302.546 96 292.019 96 280.628V180.125C96 168.733 102.075 158.206 111.938 152.507L198.859 102.279Z" fill="#242424" fill-opacity="0.4" shape-rendering="crispEdges"/>
<path d="M198.859 102.279C208.734 96.5735 220.903 96.5735 230.778 102.279L317.698 152.507C327.562 158.206 333.637 168.733 333.637 180.125V280.628C333.637 292.019 327.562 302.546 317.698 308.246L230.778 358.473C220.903 364.179 208.734 364.179 198.859 358.473L111.938 308.246C102.075 302.546 96 292.019 96 280.628V180.125C96 168.733 102.075 158.206 111.938 152.507L198.859 102.279Z" fill="url(#paint0_radial_299_2184)" fill-opacity="0.4" shape-rendering="crispEdges"/>
<path d="M198.859 102.279C208.734 96.5735 220.903 96.5735 230.778 102.279L317.698 152.507C327.562 158.206 333.637 168.733 333.637 180.125V280.628C333.637 292.019 327.562 302.546 317.698 308.246L230.778 358.473C220.903 364.179 208.734 364.179 198.859 358.473L111.938 308.246C102.075 302.546 96 292.019 96 280.628V180.125C96 168.733 102.075 158.206 111.938 152.507L198.859 102.279Z" fill="url(#paint1_radial_299_2184)" fill-opacity="0.55" shape-rendering="crispEdges"/>
</g>
<g filter="url(#filter1_d_299_2184)">
<path d="M226.997 132.846C230.416 132.846 233.575 134.67 235.284 137.63L247.303 158.448C249.012 161.408 249.012 165.056 247.303 168.017L235.284 188.834C233.575 191.795 230.416 193.619 226.997 193.619L202.959 193.619C199.54 193.619 196.381 191.795 194.672 188.834L182.653 168.017C180.944 165.056 180.944 161.408 182.653 158.448L194.672 137.63C196.381 134.67 199.54 132.846 202.959 132.846L226.997 132.846Z" fill="#FF006E"/>
</g>
<path d="M226.997 199.914C230.416 199.914 233.575 201.738 235.284 204.699L247.303 225.516C249.012 228.477 249.012 232.124 247.303 235.085L235.284 255.902C233.575 258.863 230.416 260.687 226.997 260.687L202.959 260.687C199.54 260.687 196.381 258.863 194.672 255.902L182.653 235.085C180.944 232.124 180.944 228.477 182.653 225.516L194.672 204.699C196.381 201.738 199.54 199.914 202.959 199.914L226.997 199.914Z" fill="white"/>
<g filter="url(#filter2_d_299_2184)">
<path d="M285.051 166.422C288.469 166.422 291.628 168.246 293.338 171.207L305.357 192.024C307.066 194.984 307.066 198.632 305.357 201.593L293.338 222.41C291.628 225.371 288.469 227.195 285.051 227.195L261.013 227.195C257.594 227.195 254.435 225.371 252.726 222.41L240.707 201.593C238.997 198.632 238.997 194.984 240.707 192.024L252.726 171.207C254.435 168.246 257.594 166.422 261.013 166.422L285.051 166.422Z" fill="#00FFFF"/>
</g>
<path d="M168.943 166.422C172.362 166.422 175.521 168.246 177.23 171.207L189.249 192.024C190.959 194.984 190.959 198.632 189.249 201.593L177.23 222.41C175.521 225.371 172.362 227.195 168.943 227.195L144.905 227.195C141.487 227.195 138.328 225.371 136.618 222.41L124.599 201.593C122.89 198.632 122.89 194.984 124.599 192.024L136.618 171.207C138.328 168.246 141.487 166.422 144.905 166.422L168.943 166.422Z" fill="white"/>
<g filter="url(#filter3_d_299_2184)">
<path d="M226.997 266.899C230.416 266.899 233.575 268.723 235.284 271.684L247.303 292.501C249.012 295.462 249.012 299.109 247.303 302.07L235.284 322.887C233.575 325.848 230.416 327.672 226.997 327.672L202.959 327.672C199.54 327.672 196.381 325.848 194.672 322.887L182.653 302.07C180.944 299.109 180.944 295.462 182.653 292.501L194.672 271.684C196.381 268.723 199.54 266.899 202.959 266.899L226.997 266.899Z" fill="#FF006E"/>
</g>
<path d="M285.051 233.407C288.469 233.407 291.628 235.231 293.338 238.191L305.357 259.009C307.066 261.969 307.066 265.617 305.357 268.578L293.338 289.395C291.628 292.356 288.469 294.18 285.051 294.18L261.013 294.18C257.594 294.18 254.435 292.356 252.726 289.395L240.707 268.578C238.997 265.617 238.997 261.969 240.707 259.009L252.726 238.191C254.435 235.231 257.594 233.407 261.013 233.407L285.051 233.407Z" fill="white"/>
<g filter="url(#filter4_d_299_2184)">
<path d="M168.943 233.407C172.362 233.407 175.521 235.231 177.23 238.191L189.249 259.009C190.959 261.969 190.959 265.617 189.249 268.578L177.23 289.395C175.521 292.356 172.362 294.18 168.943 294.18L144.905 294.18C141.487 294.18 138.328 292.356 136.618 289.395L124.599 268.578C122.89 265.617 122.89 261.969 124.599 259.009L136.618 238.191C138.328 235.231 141.487 233.407 144.905 233.407L168.943 233.407Z" fill="#00FFFF"/>
</g>
<path d="M449.24 289.7C438.36 289.7 428.727 288.113 420.34 284.94C411.953 281.767 405.267 276.78 400.28 269.98C395.407 263.18 392.743 254.397 392.29 243.63C392.177 238.983 392.12 233.997 392.12 228.67C392.12 223.343 392.177 218.243 392.29 213.37C392.743 202.83 395.463 194.16 400.45 187.36C405.55 180.56 412.293 175.517 420.68 172.23C429.18 168.943 438.7 167.3 449.24 167.3C456.493 167.3 463.463 168.15 470.15 169.85C476.95 171.437 483.07 173.987 488.51 177.5C493.95 181.013 498.257 185.547 501.43 191.1C504.717 196.54 506.417 203.113 506.53 210.82C506.53 211.84 506.133 212.747 505.34 213.54C504.66 214.22 503.81 214.56 502.79 214.56H468.11C466.297 214.56 464.937 214.22 464.03 213.54C463.237 212.747 462.5 211.443 461.82 209.63C460.573 206.003 458.873 203.567 456.72 202.32C454.567 201.073 452.017 200.45 449.07 200.45C445.33 200.45 442.327 201.47 440.06 203.51C437.907 205.437 436.717 209.007 436.49 214.22C436.15 223.513 436.15 233.033 436.49 242.78C436.717 247.993 437.907 251.62 440.06 253.66C442.327 255.587 445.33 256.55 449.07 256.55C452.017 256.55 454.567 255.87 456.72 254.51C458.987 253.15 460.687 250.77 461.82 247.37C462.387 245.443 463.123 244.14 464.03 243.46C464.937 242.78 466.297 242.44 468.11 242.44H502.79C503.81 242.44 504.66 242.837 505.34 243.63C506.133 244.31 506.53 245.16 506.53 246.18C506.417 253.887 504.717 260.517 501.43 266.07C498.257 271.51 493.95 275.987 488.51 279.5C483.07 283.013 476.95 285.62 470.15 287.32C463.463 288.907 456.493 289.7 449.24 289.7ZM573.748 289.7C562.641 289.7 552.894 288 544.508 284.6C536.234 281.2 529.661 276.1 524.788 269.3C520.028 262.387 517.421 253.887 516.968 243.8C516.854 239.153 516.798 234.223 516.798 229.01C516.798 223.797 516.854 218.753 516.968 213.88C517.421 203.907 520.028 195.463 524.788 188.55C529.548 181.637 536.121 176.367 544.508 172.74C552.894 169.113 562.641 167.3 573.748 167.3C584.854 167.3 594.601 169.113 602.988 172.74C611.374 176.367 617.948 181.637 622.708 188.55C627.581 195.463 630.188 203.907 630.528 213.88C630.754 218.753 630.868 223.797 630.868 229.01C630.868 234.223 630.754 239.153 630.528 243.8C630.074 253.887 627.411 262.387 622.538 269.3C617.778 276.1 611.204 281.2 602.818 284.6C594.544 288 584.854 289.7 573.748 289.7ZM573.748 256.55C577.488 256.55 580.491 255.473 582.758 253.32C585.024 251.053 586.214 247.54 586.328 242.78C586.554 237.907 586.668 233.09 586.668 228.33C586.668 223.57 586.554 218.867 586.328 214.22C586.214 211.047 585.591 208.44 584.458 206.4C583.438 204.36 582.021 202.887 580.208 201.98C578.394 200.96 576.241 200.45 573.748 200.45C571.368 200.45 569.214 200.96 567.288 201.98C565.474 202.887 564.001 204.36 562.868 206.4C561.848 208.44 561.281 211.047 561.168 214.22C561.054 218.867 560.998 223.57 560.998 228.33C560.998 233.09 561.054 237.907 561.168 242.78C561.394 247.54 562.584 251.053 564.738 253.32C567.004 255.473 570.008 256.55 573.748 256.55ZM650.79 288C649.543 288 648.466 287.547 647.56 286.64C646.653 285.733 646.2 284.657 646.2 283.41V173.59C646.2 172.343 646.653 171.267 647.56 170.36C648.466 169.453 649.543 169 650.79 169H701.11C717.43 169 730.18 172.683 739.36 180.05C748.54 187.417 753.13 197.503 753.13 210.31C753.13 217.903 751.373 224.533 747.86 230.2C744.46 235.753 740.096 240.23 734.77 243.63L755.68 282.39C756.02 283.07 756.19 283.693 756.19 284.26C756.19 285.28 755.793 286.187 755 286.98C754.32 287.66 753.47 288 752.45 288H717.6C715.333 288 713.633 287.433 712.5 286.3C711.366 285.167 710.63 284.203 710.29 283.41L695.67 250.94H688.7V283.41C688.7 284.657 688.246 285.733 687.34 286.64C686.433 287.547 685.356 288 684.11 288H650.79ZM688.7 218.64H701.11C703.716 218.64 705.643 217.79 706.89 216.09C708.25 214.277 708.93 212.237 708.93 209.97C708.93 207.703 708.306 205.607 707.06 203.68C705.926 201.64 703.943 200.62 701.11 200.62H688.7V218.64ZM773.475 288C772.228 288 771.152 287.547 770.245 286.64C769.338 285.733 768.885 284.657 768.885 283.41V173.59C768.885 172.343 769.338 171.267 770.245 170.36C771.152 169.453 772.228 169 773.475 169H860.685C861.932 169 863.008 169.453 863.915 170.36C864.822 171.267 865.275 172.343 865.275 173.59V197.56C865.275 198.807 864.822 199.883 863.915 200.79C863.008 201.697 861.932 202.15 860.685 202.15H809.685V212.86H856.945C858.192 212.86 859.268 213.313 860.175 214.22C861.082 215.127 861.535 216.203 861.535 217.45V239.55C861.535 240.797 861.082 241.873 860.175 242.78C859.268 243.687 858.192 244.14 856.945 244.14H809.685V254.85H862.045C863.292 254.85 864.368 255.303 865.275 256.21C866.182 257.117 866.635 258.193 866.635 259.44V283.41C866.635 284.657 866.182 285.733 865.275 286.64C864.368 287.547 863.292 288 862.045 288H773.475ZM900.464 288C898.197 288 896.384 287.32 895.024 285.96C893.664 284.487 892.87 283.013 892.644 281.54L877.004 173.25C877.004 173.137 877.004 173.08 877.004 173.08C877.004 172.967 877.004 172.853 877.004 172.74C877.004 171.72 877.344 170.87 878.024 170.19C878.817 169.397 879.724 169 880.744 169H912.364C916.104 169 918.144 170.53 918.484 173.59L924.264 221.53L931.234 200.28C931.46 199.487 931.97 198.467 932.764 197.22C933.557 195.973 934.974 195.35 937.014 195.35H954.354C956.394 195.35 957.81 195.973 958.604 197.22C959.397 198.467 959.907 199.487 960.134 200.28L967.104 221.36L972.884 173.59C973.224 170.53 975.264 169 979.004 169H1010.62C1011.64 169 1012.49 169.397 1013.17 170.19C1013.97 170.87 1014.36 171.72 1014.36 172.74C1014.36 172.853 1014.36 172.967 1014.36 173.08C1014.36 173.08 1014.36 173.137 1014.36 173.25L998.724 281.54C998.61 283.013 997.817 284.487 996.344 285.96C994.984 287.32 993.171 288 990.904 288H966.594C964.327 288 962.627 287.433 961.494 286.3C960.474 285.053 959.851 284.09 959.624 283.41L945.684 248.56L931.744 283.41C931.517 284.09 930.837 285.053 929.704 286.3C928.684 287.433 927.04 288 924.774 288H900.464ZM1017.11 288C1016.09 288 1015.19 287.66 1014.39 286.98C1013.71 286.187 1013.37 285.28 1013.37 284.26C1013.37 283.807 1013.43 283.41 1013.54 283.07L1051.45 174.61C1051.79 173.363 1052.59 172.117 1053.83 170.87C1055.08 169.623 1056.84 169 1059.1 169H1095.99C1098.26 169 1100.02 169.623 1101.26 170.87C1102.51 172.117 1103.3 173.363 1103.64 174.61L1141.55 283.07C1141.67 283.41 1141.72 283.807 1141.72 284.26C1141.72 285.28 1141.33 286.187 1140.53 286.98C1139.85 287.66 1139 288 1137.98 288H1106.53C1104.38 288 1102.79 287.547 1101.77 286.64C1100.87 285.62 1100.24 284.657 1099.9 283.75L1095.82 272.53H1059.27L1055.19 283.75C1054.85 284.657 1054.23 285.62 1053.32 286.64C1052.42 287.547 1050.83 288 1048.56 288H1017.11ZM1067.94 239.38H1087.15L1077.46 207.76L1067.94 239.38ZM1155.64 288C1154.4 288 1153.32 287.547 1152.41 286.64C1151.51 285.733 1151.05 284.657 1151.05 283.41V173.59C1151.05 172.343 1151.51 171.267 1152.41 170.36C1153.32 169.453 1154.4 169 1155.64 169H1205.96C1222.28 169 1235.03 172.683 1244.21 180.05C1253.39 187.417 1257.98 197.503 1257.98 210.31C1257.98 217.903 1256.23 224.533 1252.71 230.2C1249.31 235.753 1244.95 240.23 1239.62 243.63L1260.53 282.39C1260.87 283.07 1261.04 283.693 1261.04 284.26C1261.04 285.28 1260.65 286.187 1259.85 286.98C1259.17 287.66 1258.32 288 1257.3 288H1222.45C1220.19 288 1218.49 287.433 1217.35 286.3C1216.22 285.167 1215.48 284.203 1215.14 283.41L1200.52 250.94H1193.55V283.41C1193.55 284.657 1193.1 285.733 1192.19 286.64C1191.29 287.547 1190.21 288 1188.96 288H1155.64ZM1193.55 218.64H1205.96C1208.57 218.64 1210.5 217.79 1211.74 216.09C1213.1 214.277 1213.78 212.237 1213.78 209.97C1213.78 207.703 1213.16 205.607 1211.91 203.68C1210.78 201.64 1208.8 200.62 1205.96 200.62H1193.55V218.64Z" fill="white"/>
<defs>
<filter id="filter0_bdddd_299_2184" x="-9" y="-7" width="457.637" height="484.753" filterUnits="userSpaceOnUse" color-interpolation-filters="sRGB">
<feFlood flood-opacity="0" result="BackgroundImageFix"/>
<feGaussianBlur in="BackgroundImageFix" stdDeviation="10"/>
<feComposite in2="SourceAlpha" operator="in" result="effect1_backgroundBlur_299_2184"/>
<feColorMatrix in="SourceAlpha" type="matrix" values="0 0 0 0 0 0 0 0 0 0 0 0 0 0 0 0 0 0 127 0" result="hardAlpha"/>
<feOffset dx="30" dy="30"/>
<feGaussianBlur stdDeviation="42.5"/>
<feComposite in2="hardAlpha" operator="out"/>
<feColorMatrix type="matrix" values="0 0 0 0 1 0 0 0 0 0 0 0 0 0 0.431373 0 0 0 0.4 0"/>
<feBlend mode="normal" in2="effect1_backgroundBlur_299_2184" result="effect2_dropShadow_299_2184"/>
<feColorMatrix in="SourceAlpha" type="matrix" values="0 0 0 0 0 0 0 0 0 0 0 0 0 0 0 0 0 0 127 0" result="hardAlpha"/>
<feOffset dx="-20" dy="-20"/>
<feGaussianBlur stdDeviation="42.5"/>
<feComposite in2="hardAlpha" operator="out"/>
<feColorMatrix type="matrix" values="0 0 0 0 0 0 0 0 0 1 0 0 0 0 1 0 0 0 0.37 0"/>
<feBlend mode="normal" in2="effect2_dropShadow_299_2184" result="effect3_dropShadow_299_2184"/>
<feColorMatrix in="SourceAlpha" type="matrix" values="0 0 0 0 0 0 0 0 0 0 0 0 0 0 0 0 0 0 127 0" result="hardAlpha"/>
<feOffset dx="-1" dy="-1"/>
<feComposite in2="hardAlpha" operator="out"/>
<feColorMatrix type="matrix" values="0 0 0 0 1 0 0 0 0 1 0 0 0 0 1 0 0 0 0.25 0"/>
<feBlend mode="normal" in2="effect3_dropShadow_299_2184" result="effect4_dropShadow_299_2184"/>
<feColorMatrix in="SourceAlpha" type="matrix" values="0 0 0 0 0 0 0 0 0 0 0 0 0 0 0 0 0 0 127 0" result="hardAlpha"/>
<feOffset dx="1" dy="1"/>
<feComposite in2="hardAlpha" operator="out"/>
<feColorMatrix type="matrix" values="0 0 0 0 0 0 0 0 0 0 0 0 0 0 0 0 0 0 0.4 0"/>
<feBlend mode="normal" in2="effect4_dropShadow_299_2184" result="effect5_dropShadow_299_2184"/>
<feBlend mode="normal" in="SourceGraphic" in2="effect5_dropShadow_299_2184" result="shape"/>
</filter>
<filter id="filter1_d_299_2184" x="161.371" y="117.846" width="107.214" height="100.773" filterUnits="userSpaceOnUse" color-interpolation-filters="sRGB">
<feFlood flood-opacity="0" result="BackgroundImageFix"/>
<feColorMatrix in="SourceAlpha" type="matrix" values="0 0 0 0 0 0 0 0 0 0 0 0 0 0 0 0 0 0 127 0" result="hardAlpha"/>
<feOffset dy="5"/>
<feGaussianBlur stdDeviation="10"/>
<feComposite in2="hardAlpha" operator="out"/>
<feColorMatrix type="matrix" values="0 0 0 0 1 0 0 0 0 0 0 0 0 0 0.431373 0 0 0 0.33 0"/>
<feBlend mode="normal" in2="BackgroundImageFix" result="effect1_dropShadow_299_2184"/>
<feBlend mode="normal" in="SourceGraphic" in2="effect1_dropShadow_299_2184" result="shape"/>
</filter>
<filter id="filter2_d_299_2184" x="219.425" y="151.422" width="107.214" height="100.773" filterUnits="userSpaceOnUse" color-interpolation-filters="sRGB">
<feFlood flood-opacity="0" result="BackgroundImageFix"/>
<feColorMatrix in="SourceAlpha" type="matrix" values="0 0 0 0 0 0 0 0 0 0 0 0 0 0 0 0 0 0 127 0" result="hardAlpha"/>
<feOffset dy="5"/>
<feGaussianBlur stdDeviation="10"/>
<feComposite in2="hardAlpha" operator="out"/>
<feColorMatrix type="matrix" values="0 0 0 0 0 0 0 0 0 1 0 0 0 0 1 0 0 0 0.3 0"/>
<feBlend mode="normal" in2="BackgroundImageFix" result="effect1_dropShadow_299_2184"/>
<feBlend mode="normal" in="SourceGraphic" in2="effect1_dropShadow_299_2184" result="shape"/>
</filter>
<filter id="filter3_d_299_2184" x="161.371" y="251.899" width="107.214" height="100.773" filterUnits="userSpaceOnUse" color-interpolation-filters="sRGB">
<feFlood flood-opacity="0" result="BackgroundImageFix"/>
<feColorMatrix in="SourceAlpha" type="matrix" values="0 0 0 0 0 0 0 0 0 0 0 0 0 0 0 0 0 0 127 0" result="hardAlpha"/>
<feOffset dy="5"/>
<feGaussianBlur stdDeviation="10"/>
<feComposite in2="hardAlpha" operator="out"/>
<feColorMatrix type="matrix" values="0 0 0 0 1 0 0 0 0 0 0 0 0 0 0.431373 0 0 0 0.33 0"/>
<feBlend mode="normal" in2="BackgroundImageFix" result="effect1_dropShadow_299_2184"/>
<feBlend mode="normal" in="SourceGraphic" in2="effect1_dropShadow_299_2184" result="shape"/>
</filter>
<filter id="filter4_d_299_2184" x="103.317" y="218.407" width="107.214" height="100.773" filterUnits="userSpaceOnUse" color-interpolation-filters="sRGB">
<feFlood flood-opacity="0" result="BackgroundImageFix"/>
<feColorMatrix in="SourceAlpha" type="matrix" values="0 0 0 0 0 0 0 0 0 0 0 0 0 0 0 0 0 0 127 0" result="hardAlpha"/>
<feOffset dy="5"/>
<feGaussianBlur stdDeviation="10"/>
<feComposite in2="hardAlpha" operator="out"/>
<feColorMatrix type="matrix" values="0 0 0 0 0 0 0 0 0 1 0 0 0 0 1 0 0 0 0.3 0"/>
<feBlend mode="normal" in2="BackgroundImageFix" result="effect1_dropShadow_299_2184"/>
<feBlend mode="normal" in="SourceGraphic" in2="effect1_dropShadow_299_2184" result="shape"/>
</filter>
<radialGradient id="paint0_radial_299_2184" cx="0" cy="0" r="1" gradientUnits="userSpaceOnUse" gradientTransform="translate(162 182.5) rotate(22.6199) scale(123.5 153.694)">
<stop stop-color="#00FFFF"/>
<stop offset="1" stop-color="#00FFFF" stop-opacity="0"/>
</radialGradient>
<radialGradient id="paint1_radial_299_2184" cx="0" cy="0" r="1" gradientUnits="userSpaceOnUse" gradientTransform="translate(273.5 280) rotate(-142.367) scale(135.112 176.464)">
<stop stop-color="#FF006E"/>
<stop offset="1" stop-color="#FF006E" stop-opacity="0"/>
</radialGradient>
</defs>
</svg>
