<svg width="1345" height="470" viewBox="0 0 1345 470" fill="none" xmlns="http://www.w3.org/2000/svg">
<path d="M440.88 289.7C430.113 289.7 420.707 288.057 412.66 284.77C404.613 281.37 398.267 276.27 393.62 269.47C389.087 262.67 386.593 254.057 386.14 243.63C386.027 238.983 385.97 233.997 385.97 228.67C385.97 223.343 386.027 218.243 386.14 213.37C386.593 203.17 389.143 194.67 393.79 187.87C398.55 180.957 404.953 175.8 413 172.4C421.16 169 430.453 167.3 440.88 167.3C448.36 167.3 455.33 168.207 461.79 170.02C468.363 171.72 474.2 174.383 479.3 178.01C484.4 181.523 488.423 185.943 491.37 191.27C494.317 196.483 495.847 202.603 495.96 209.63C495.96 210.65 495.563 211.5 494.77 212.18C494.09 212.86 493.24 213.2 492.22 213.2H463.49C461.79 213.2 460.543 212.86 459.75 212.18C458.957 211.5 458.277 210.31 457.71 208.61C456.237 203.737 454.083 200.45 451.25 198.75C448.417 197.05 444.96 196.2 440.88 196.2C435.893 196.2 431.927 197.56 428.98 200.28C426.033 202.887 424.447 207.533 424.22 214.22C423.88 223.513 423.88 233.033 424.22 242.78C424.447 249.467 426.033 254.17 428.98 256.89C431.927 259.497 435.893 260.8 440.88 260.8C444.96 260.8 448.417 259.893 451.25 258.08C454.197 256.267 456.35 253.037 457.71 248.39C458.163 246.577 458.787 245.387 459.58 244.82C460.487 244.14 461.79 243.8 463.49 243.8H492.22C493.24 243.8 494.09 244.14 494.77 244.82C495.563 245.5 495.96 246.35 495.96 247.37C495.847 254.397 494.317 260.573 491.37 265.9C488.423 271.113 484.4 275.533 479.3 279.16C474.2 282.673 468.363 285.337 461.79 287.15C455.33 288.85 448.36 289.7 440.88 289.7ZM562.901 289.7C552.021 289.7 542.558 288 534.511 284.6C526.578 281.2 520.288 276.1 515.641 269.3C511.108 262.387 508.671 253.83 508.331 243.63C508.218 238.87 508.161 233.997 508.161 229.01C508.161 223.91 508.218 218.867 508.331 213.88C508.671 203.793 511.108 195.293 515.641 188.38C520.288 181.467 526.635 176.253 534.681 172.74C542.728 169.113 552.135 167.3 562.901 167.3C573.555 167.3 582.905 169.113 590.951 172.74C598.998 176.253 605.345 181.467 609.991 188.38C614.638 195.293 617.075 203.793 617.301 213.88C617.528 218.867 617.641 223.91 617.641 229.01C617.641 233.997 617.528 238.87 617.301 243.63C616.961 253.83 614.468 262.387 609.821 269.3C605.288 276.1 598.998 281.2 590.951 284.6C583.018 288 573.668 289.7 562.901 289.7ZM562.901 260.8C567.661 260.8 571.571 259.383 574.631 256.55C577.691 253.603 579.278 248.957 579.391 242.61C579.618 237.737 579.731 233.033 579.731 228.5C579.731 223.853 579.618 219.15 579.391 214.39C579.278 210.197 578.485 206.74 577.011 204.02C575.651 201.3 573.725 199.317 571.231 198.07C568.851 196.823 566.075 196.2 562.901 196.2C559.728 196.2 556.895 196.823 554.401 198.07C551.908 199.317 549.925 201.3 548.451 204.02C547.091 206.74 546.355 210.197 546.241 214.39C546.128 219.15 546.071 223.853 546.071 228.5C546.071 233.033 546.128 237.737 546.241 242.61C546.468 248.957 548.055 253.603 551.001 256.55C554.061 259.383 558.028 260.8 562.901 260.8ZM639.497 288C638.364 288 637.344 287.603 636.437 286.81C635.53 285.903 635.077 284.827 635.077 283.58V173.42C635.077 172.173 635.53 171.153 636.437 170.36C637.344 169.453 638.364 169 639.497 169H687.947C703.36 169 715.43 172.513 724.157 179.54C732.997 186.567 737.417 196.37 737.417 208.95C737.417 216.883 735.604 223.627 731.977 229.18C728.35 234.733 723.59 239.097 717.697 242.27L739.797 282.39C740.137 283.07 740.307 283.693 740.307 284.26C740.307 285.28 739.967 286.187 739.287 286.98C738.607 287.66 737.757 288 736.737 288H708.007C705.854 288 704.21 287.49 703.077 286.47C701.944 285.337 701.207 284.317 700.867 283.41L683.867 248.39H671.627V283.58C671.627 284.827 671.174 285.903 670.267 286.81C669.474 287.603 668.454 288 667.207 288H639.497ZM671.627 220.34H687.777C691.744 220.34 694.69 219.263 696.617 217.11C698.544 214.843 699.507 212.067 699.507 208.78C699.507 205.38 698.544 202.49 696.617 200.11C694.804 197.73 691.857 196.54 687.777 196.54H671.627V220.34ZM759.692 288C758.559 288 757.539 287.603 756.632 286.81C755.726 285.903 755.272 284.827 755.272 283.58V173.42C755.272 172.173 755.726 171.153 756.632 170.36C757.539 169.453 758.559 169 759.692 169H842.992C844.239 169 845.316 169.453 846.222 170.36C847.129 171.153 847.582 172.173 847.582 173.42V193.48C847.582 194.613 847.129 195.633 846.222 196.54C845.316 197.447 844.239 197.9 842.992 197.9H790.462V214.73H839.252C840.499 214.73 841.576 215.183 842.482 216.09C843.389 216.883 843.842 217.903 843.842 219.15V237.51C843.842 238.757 843.389 239.833 842.482 240.74C841.576 241.533 840.499 241.93 839.252 241.93H790.462V259.1H844.352C845.599 259.1 846.676 259.553 847.582 260.46C848.489 261.367 848.942 262.443 848.942 263.69V283.58C848.942 284.827 848.489 285.903 847.582 286.81C846.676 287.603 845.599 288 844.352 288H759.692ZM885.037 288C882.884 288 881.184 287.377 879.937 286.13C878.69 284.883 877.954 283.523 877.727 282.05L860.727 173.42C860.727 173.307 860.67 173.193 860.557 173.08C860.557 172.967 860.557 172.853 860.557 172.74C860.557 171.72 860.897 170.87 861.577 170.19C862.37 169.397 863.277 169 864.297 169H890.647C894.16 169 896.087 170.417 896.427 173.25L904.757 230.37L914.447 200.11C914.674 199.317 915.184 198.353 915.977 197.22C916.77 195.973 918.13 195.35 920.057 195.35H934.847C936.774 195.35 938.134 195.973 938.927 197.22C939.72 198.353 940.287 199.317 940.627 200.11L950.147 230.2L958.647 173.25C958.987 170.417 960.857 169 964.257 169H990.607C991.627 169 992.477 169.397 993.157 170.19C993.95 170.87 994.347 171.72 994.347 172.74C994.347 172.853 994.347 172.967 994.347 173.08C994.347 173.193 994.29 173.307 994.177 173.42L977.177 282.05C977.064 283.523 976.327 284.883 974.967 286.13C973.72 287.377 972.02 288 969.867 288H949.637C947.597 288 946.067 287.49 945.047 286.47C944.027 285.337 943.347 284.373 943.007 283.58L927.537 241.76L911.897 283.58C911.67 284.373 910.99 285.337 909.857 286.47C908.837 287.49 907.307 288 905.267 288H885.037ZM998.508 288C997.488 288 996.581 287.66 995.788 286.98C995.108 286.187 994.768 285.28 994.768 284.26C994.768 283.807 994.881 283.41 995.108 283.07L1033.87 174.27C1034.21 173.023 1034.94 171.833 1036.08 170.7C1037.32 169.567 1038.97 169 1041.01 169H1072.12C1074.27 169 1075.91 169.567 1077.05 170.7C1078.18 171.833 1078.92 173.023 1079.26 174.27L1118.19 283.07C1118.3 283.41 1118.36 283.807 1118.36 284.26C1118.36 285.28 1117.96 286.187 1117.17 286.98C1116.49 287.66 1115.64 288 1114.62 288H1088.44C1086.51 288 1085.09 287.547 1084.19 286.64C1083.28 285.733 1082.66 284.883 1082.32 284.09L1077.05 269.81H1036.08L1030.81 284.09C1030.47 284.883 1029.84 285.733 1028.94 286.64C1028.14 287.547 1026.73 288 1024.69 288H998.508ZM1043.9 241.08H1069.23L1056.48 202.83L1043.9 241.08ZM1134.06 288C1132.92 288 1131.9 287.603 1131 286.81C1130.09 285.903 1129.64 284.827 1129.64 283.58V173.42C1129.64 172.173 1130.09 171.153 1131 170.36C1131.9 169.453 1132.92 169 1134.06 169H1182.51C1197.92 169 1209.99 172.513 1218.72 179.54C1227.56 186.567 1231.98 196.37 1231.98 208.95C1231.98 216.883 1230.16 223.627 1226.54 229.18C1222.91 234.733 1218.15 239.097 1212.26 242.27L1234.36 282.39C1234.7 283.07 1234.87 283.693 1234.87 284.26C1234.87 285.28 1234.53 286.187 1233.85 286.98C1233.17 287.66 1232.32 288 1231.3 288H1202.57C1200.41 288 1198.77 287.49 1197.64 286.47C1196.5 285.337 1195.77 284.317 1195.43 283.41L1178.43 248.39H1166.19V283.58C1166.19 284.827 1165.73 285.903 1164.83 286.81C1164.03 287.603 1163.01 288 1161.77 288H1134.06ZM1166.19 220.34H1182.34C1186.3 220.34 1189.25 219.263 1191.18 217.11C1193.1 214.843 1194.07 212.067 1194.07 208.78C1194.07 205.38 1193.1 202.49 1191.18 200.11C1189.36 197.73 1186.42 196.54 1182.34 196.54H1166.19V220.34Z" fill="white"/>
<g filter="url(#filter0_bdddd_471_17867)">
<path d="M202.128 109.041C211.452 103.653 222.943 103.653 232.267 109.041L314.345 156.47C323.658 161.852 329.395 171.792 329.395 182.549V277.451C329.395 288.208 323.658 298.148 314.345 303.53L232.267 350.959C222.943 356.347 211.452 356.347 202.128 350.959L120.05 303.53C110.737 298.148 105 288.208 105 277.451V182.549C105 171.792 110.737 161.852 120.05 156.47L202.128 109.041Z" fill="#242424" fill-opacity="0.4" shape-rendering="crispEdges"/>
<path d="M202.128 109.041C211.452 103.653 222.943 103.653 232.267 109.041L314.345 156.47C323.658 161.852 329.395 171.792 329.395 182.549V277.451C329.395 288.208 323.658 298.148 314.345 303.53L232.267 350.959C222.943 356.347 211.452 356.347 202.128 350.959L120.05 303.53C110.737 298.148 105 288.208 105 277.451V182.549C105 171.792 110.737 161.852 120.05 156.47L202.128 109.041Z" fill="url(#paint0_radial_471_17867)" fill-opacity="0.4" shape-rendering="crispEdges"/>
<path d="M202.128 109.041C211.452 103.653 222.943 103.653 232.267 109.041L314.345 156.47C323.658 161.852 329.395 171.792 329.395 182.549V277.451C329.395 288.208 323.658 298.148 314.345 303.53L232.267 350.959C222.943 356.347 211.452 356.347 202.128 350.959L120.05 303.53C110.737 298.148 105 288.208 105 277.451V182.549C105 171.792 110.737 161.852 120.05 156.47L202.128 109.041Z" fill="url(#paint1_radial_471_17867)" fill-opacity="0.55" shape-rendering="crispEdges"/>
</g>
<g filter="url(#filter1_d_471_17867)">
<path d="M228.698 137.903C231.926 137.903 234.909 139.626 236.523 142.421L247.872 162.079C249.486 164.874 249.486 168.319 247.872 171.115L236.523 190.772C234.909 193.568 231.926 195.29 228.698 195.29L205.999 195.29C202.771 195.29 199.788 193.568 198.174 190.772L186.825 171.115C185.211 168.319 185.211 164.874 186.825 162.079L198.174 142.421C199.788 139.626 202.771 137.903 205.999 137.903L228.698 137.903Z" fill="#FF006E"/>
</g>
<path d="M228.698 201.235C231.926 201.235 234.909 202.958 236.523 205.753L247.872 225.411C249.486 228.206 249.486 231.651 247.872 234.447L236.523 254.104C234.909 256.9 231.926 258.622 228.698 258.622L205.999 258.622C202.771 258.622 199.788 256.9 198.174 254.104L186.825 234.447C185.211 231.651 185.211 228.206 186.825 225.411L198.174 205.753C199.788 202.958 202.771 201.235 205.999 201.235L228.698 201.235Z" fill="white"/>
<g filter="url(#filter2_d_471_17867)">
<path d="M283.517 169.609C286.745 169.609 289.728 171.332 291.342 174.127L302.692 193.785C304.306 196.58 304.306 200.025 302.692 202.821L291.342 222.478C289.728 225.274 286.745 226.996 283.517 226.996L260.819 226.996C257.59 226.996 254.607 225.274 252.993 222.478L241.644 202.821C240.03 200.025 240.03 196.58 241.644 193.785L252.993 174.127C254.607 171.332 257.59 169.609 260.819 169.609L283.517 169.609Z" fill="#00FFFF"/>
</g>
<path d="M173.878 169.609C177.107 169.609 180.09 171.332 181.704 174.127L193.053 193.785C194.667 196.58 194.667 200.025 193.053 202.821L181.704 222.478C180.09 225.274 177.107 226.996 173.878 226.996L151.18 226.996C147.952 226.996 144.969 225.274 143.355 222.478L132.006 202.821C130.391 200.025 130.391 196.58 132.006 193.785L143.355 174.127C144.969 171.332 147.952 169.609 151.18 169.609L173.878 169.609Z" fill="white"/>
<g filter="url(#filter3_d_471_17867)">
<path d="M228.698 264.487C231.926 264.487 234.909 266.21 236.523 269.005L247.872 288.663C249.486 291.458 249.486 294.903 247.872 297.699L236.523 317.356C234.909 320.152 231.926 321.874 228.698 321.874L205.999 321.874C202.771 321.874 199.788 320.152 198.174 317.356L186.825 297.699C185.211 294.903 185.211 291.458 186.825 288.663L198.174 269.005C199.788 266.21 202.771 264.487 205.999 264.487L228.698 264.487Z" fill="#FF006E"/>
</g>
<path d="M283.517 232.861C286.745 232.861 289.728 234.584 291.342 237.379L302.692 257.037C304.306 259.832 304.306 263.277 302.692 266.073L291.342 285.73C289.728 288.526 286.745 290.248 283.517 290.248L260.819 290.248C257.59 290.248 254.607 288.526 252.993 285.73L241.644 266.073C240.03 263.277 240.03 259.832 241.644 257.037L252.993 237.379C254.607 234.584 257.59 232.861 260.819 232.861L283.517 232.861Z" fill="white"/>
<g filter="url(#filter4_d_471_17867)">
<path d="M173.878 232.861C177.107 232.861 180.09 234.584 181.704 237.379L193.053 257.037C194.667 259.832 194.667 263.277 193.053 266.073L181.704 285.73C180.09 288.526 177.107 290.248 173.878 290.248L151.18 290.248C147.952 290.248 144.969 288.526 143.355 285.73L132.006 266.073C130.391 263.277 130.391 259.832 132.006 257.037L143.355 237.379C144.969 234.584 147.952 232.861 151.18 232.861L173.878 232.861Z" fill="#00FFFF"/>
</g>
<defs>
<filter id="filter0_bdddd_471_17867" x="0" y="0" width="444.395" height="470" filterUnits="userSpaceOnUse" color-interpolation-filters="sRGB">
<feFlood flood-opacity="0" result="BackgroundImageFix"/>
<feGaussianBlur in="BackgroundImageFix" stdDeviation="10"/>
<feComposite in2="SourceAlpha" operator="in" result="effect1_backgroundBlur_471_17867"/>
<feColorMatrix in="SourceAlpha" type="matrix" values="0 0 0 0 0 0 0 0 0 0 0 0 0 0 0 0 0 0 127 0" result="hardAlpha"/>
<feOffset dx="30" dy="30"/>
<feGaussianBlur stdDeviation="42.5"/>
<feComposite in2="hardAlpha" operator="out"/>
<feColorMatrix type="matrix" values="0 0 0 0 1 0 0 0 0 0 0 0 0 0 0.431373 0 0 0 0.4 0"/>
<feBlend mode="normal" in2="effect1_backgroundBlur_471_17867" result="effect2_dropShadow_471_17867"/>
<feColorMatrix in="SourceAlpha" type="matrix" values="0 0 0 0 0 0 0 0 0 0 0 0 0 0 0 0 0 0 127 0" result="hardAlpha"/>
<feOffset dx="-20" dy="-20"/>
<feGaussianBlur stdDeviation="42.5"/>
<feComposite in2="hardAlpha" operator="out"/>
<feColorMatrix type="matrix" values="0 0 0 0 0 0 0 0 0 1 0 0 0 0 1 0 0 0 0.37 0"/>
<feBlend mode="normal" in2="effect2_dropShadow_471_17867" result="effect3_dropShadow_471_17867"/>
<feColorMatrix in="SourceAlpha" type="matrix" values="0 0 0 0 0 0 0 0 0 0 0 0 0 0 0 0 0 0 127 0" result="hardAlpha"/>
<feOffset dx="-1" dy="-1"/>
<feComposite in2="hardAlpha" operator="out"/>
<feColorMatrix type="matrix" values="0 0 0 0 1 0 0 0 0 1 0 0 0 0 1 0 0 0 0.25 0"/>
<feBlend mode="normal" in2="effect3_dropShadow_471_17867" result="effect4_dropShadow_471_17867"/>
<feColorMatrix in="SourceAlpha" type="matrix" values="0 0 0 0 0 0 0 0 0 0 0 0 0 0 0 0 0 0 127 0" result="hardAlpha"/>
<feOffset dx="1" dy="1"/>
<feComposite in2="hardAlpha" operator="out"/>
<feColorMatrix type="matrix" values="0 0 0 0 0 0 0 0 0 0 0 0 0 0 0 0 0 0 0.4 0"/>
<feBlend mode="normal" in2="effect4_dropShadow_471_17867" result="effect5_dropShadow_471_17867"/>
<feBlend mode="normal" in="SourceGraphic" in2="effect5_dropShadow_471_17867" result="shape"/>
</filter>
<filter id="filter1_d_471_17867" x="165.614" y="122.903" width="103.469" height="97.3867" filterUnits="userSpaceOnUse" color-interpolation-filters="sRGB">
<feFlood flood-opacity="0" result="BackgroundImageFix"/>
<feColorMatrix in="SourceAlpha" type="matrix" values="0 0 0 0 0 0 0 0 0 0 0 0 0 0 0 0 0 0 127 0" result="hardAlpha"/>
<feOffset dy="5"/>
<feGaussianBlur stdDeviation="10"/>
<feComposite in2="hardAlpha" operator="out"/>
<feColorMatrix type="matrix" values="0 0 0 0 1 0 0 0 0 0 0 0 0 0 0.431373 0 0 0 0.33 0"/>
<feBlend mode="normal" in2="BackgroundImageFix" result="effect1_dropShadow_471_17867"/>
<feBlend mode="normal" in="SourceGraphic" in2="effect1_dropShadow_471_17867" result="shape"/>
</filter>
<filter id="filter2_d_471_17867" x="220.434" y="154.609" width="103.469" height="97.3867" filterUnits="userSpaceOnUse" color-interpolation-filters="sRGB">
<feFlood flood-opacity="0" result="BackgroundImageFix"/>
<feColorMatrix in="SourceAlpha" type="matrix" values="0 0 0 0 0 0 0 0 0 0 0 0 0 0 0 0 0 0 127 0" result="hardAlpha"/>
<feOffset dy="5"/>
<feGaussianBlur stdDeviation="10"/>
<feComposite in2="hardAlpha" operator="out"/>
<feColorMatrix type="matrix" values="0 0 0 0 0 0 0 0 0 1 0 0 0 0 1 0 0 0 0.3 0"/>
<feBlend mode="normal" in2="BackgroundImageFix" result="effect1_dropShadow_471_17867"/>
<feBlend mode="normal" in="SourceGraphic" in2="effect1_dropShadow_471_17867" result="shape"/>
</filter>
<filter id="filter3_d_471_17867" x="165.614" y="249.487" width="103.469" height="97.3867" filterUnits="userSpaceOnUse" color-interpolation-filters="sRGB">
<feFlood flood-opacity="0" result="BackgroundImageFix"/>
<feColorMatrix in="SourceAlpha" type="matrix" values="0 0 0 0 0 0 0 0 0 0 0 0 0 0 0 0 0 0 127 0" result="hardAlpha"/>
<feOffset dy="5"/>
<feGaussianBlur stdDeviation="10"/>
<feComposite in2="hardAlpha" operator="out"/>
<feColorMatrix type="matrix" values="0 0 0 0 1 0 0 0 0 0 0 0 0 0 0.431373 0 0 0 0.33 0"/>
<feBlend mode="normal" in2="BackgroundImageFix" result="effect1_dropShadow_471_17867"/>
<feBlend mode="normal" in="SourceGraphic" in2="effect1_dropShadow_471_17867" result="shape"/>
</filter>
<filter id="filter4_d_471_17867" x="110.795" y="217.861" width="103.469" height="97.3867" filterUnits="userSpaceOnUse" color-interpolation-filters="sRGB">
<feFlood flood-opacity="0" result="BackgroundImageFix"/>
<feColorMatrix in="SourceAlpha" type="matrix" values="0 0 0 0 0 0 0 0 0 0 0 0 0 0 0 0 0 0 127 0" result="hardAlpha"/>
<feOffset dy="5"/>
<feGaussianBlur stdDeviation="10"/>
<feComposite in2="hardAlpha" operator="out"/>
<feColorMatrix type="matrix" values="0 0 0 0 0 0 0 0 0 1 0 0 0 0 1 0 0 0 0.3 0"/>
<feBlend mode="normal" in2="BackgroundImageFix" result="effect1_dropShadow_471_17867"/>
<feBlend mode="normal" in="SourceGraphic" in2="effect1_dropShadow_471_17867" result="shape"/>
</filter>
<radialGradient id="paint0_radial_471_17867" cx="0" cy="0" r="1" gradientUnits="userSpaceOnUse" gradientTransform="translate(167.322 184.791) rotate(22.6199) scale(116.618 145.129)">
<stop stop-color="#00FFFF"/>
<stop offset="1" stop-color="#00FFFF" stop-opacity="0"/>
</radialGradient>
<radialGradient id="paint1_radial_471_17867" cx="0" cy="0" r="1" gradientUnits="userSpaceOnUse" gradientTransform="translate(272.609 276.858) rotate(-142.367) scale(127.583 166.631)">
<stop stop-color="#FF006E"/>
<stop offset="1" stop-color="#FF006E" stop-opacity="0"/>
</radialGradient>
</defs>
</svg>
