<svg width="1614" height="433" viewBox="0 0 1614 433" fill="none" xmlns="http://www.w3.org/2000/svg">
<path d="M447.24 294.7C436.36 294.7 426.727 293.113 418.34 289.94C409.953 286.767 403.267 281.78 398.28 274.98C393.407 268.18 390.743 259.397 390.29 248.63C390.177 243.983 390.12 238.997 390.12 233.67C390.12 228.343 390.177 223.243 390.29 218.37C390.743 207.83 393.463 199.16 398.45 192.36C403.55 185.56 410.293 180.517 418.68 177.23C427.18 173.943 436.7 172.3 447.24 172.3C454.493 172.3 461.463 173.15 468.15 174.85C474.95 176.437 481.07 178.987 486.51 182.5C491.95 186.013 496.257 190.547 499.43 196.1C502.717 201.54 504.417 208.113 504.53 215.82C504.53 216.84 504.133 217.747 503.34 218.54C502.66 219.22 501.81 219.56 500.79 219.56H466.11C464.297 219.56 462.937 219.22 462.03 218.54C461.237 217.747 460.5 216.443 459.82 214.63C458.573 211.003 456.873 208.567 454.72 207.32C452.567 206.073 450.017 205.45 447.07 205.45C443.33 205.45 440.327 206.47 438.06 208.51C435.907 210.437 434.717 214.007 434.49 219.22C434.15 228.513 434.15 238.033 434.49 247.78C434.717 252.993 435.907 256.62 438.06 258.66C440.327 260.587 443.33 261.55 447.07 261.55C450.017 261.55 452.567 260.87 454.72 259.51C456.987 258.15 458.687 255.77 459.82 252.37C460.387 250.443 461.123 249.14 462.03 248.46C462.937 247.78 464.297 247.44 466.11 247.44H500.79C501.81 247.44 502.66 247.837 503.34 248.63C504.133 249.31 504.53 250.16 504.53 251.18C504.417 258.887 502.717 265.517 499.43 271.07C496.257 276.51 491.95 280.987 486.51 284.5C481.07 288.013 474.95 290.62 468.15 292.32C461.463 293.907 454.493 294.7 447.24 294.7ZM571.748 294.7C560.641 294.7 550.894 293 542.508 289.6C534.234 286.2 527.661 281.1 522.788 274.3C518.028 267.387 515.421 258.887 514.968 248.8C514.854 244.153 514.798 239.223 514.798 234.01C514.798 228.797 514.854 223.753 514.968 218.88C515.421 208.907 518.028 200.463 522.788 193.55C527.548 186.637 534.121 181.367 542.508 177.74C550.894 174.113 560.641 172.3 571.748 172.3C582.854 172.3 592.601 174.113 600.988 177.74C609.374 181.367 615.948 186.637 620.708 193.55C625.581 200.463 628.188 208.907 628.528 218.88C628.754 223.753 628.868 228.797 628.868 234.01C628.868 239.223 628.754 244.153 628.528 248.8C628.074 258.887 625.411 267.387 620.538 274.3C615.778 281.1 609.204 286.2 600.818 289.6C592.544 293 582.854 294.7 571.748 294.7ZM571.748 261.55C575.488 261.55 578.491 260.473 580.758 258.32C583.024 256.053 584.214 252.54 584.328 247.78C584.554 242.907 584.668 238.09 584.668 233.33C584.668 228.57 584.554 223.867 584.328 219.22C584.214 216.047 583.591 213.44 582.458 211.4C581.438 209.36 580.021 207.887 578.208 206.98C576.394 205.96 574.241 205.45 571.748 205.45C569.368 205.45 567.214 205.96 565.288 206.98C563.474 207.887 562.001 209.36 560.868 211.4C559.848 213.44 559.281 216.047 559.168 219.22C559.054 223.867 558.998 228.57 558.998 233.33C558.998 238.09 559.054 242.907 559.168 247.78C559.394 252.54 560.584 256.053 562.738 258.32C565.004 260.473 568.008 261.55 571.748 261.55ZM648.79 293C647.543 293 646.466 292.547 645.56 291.64C644.653 290.733 644.2 289.657 644.2 288.41V178.59C644.2 177.343 644.653 176.267 645.56 175.36C646.466 174.453 647.543 174 648.79 174H699.11C715.43 174 728.18 177.683 737.36 185.05C746.54 192.417 751.13 202.503 751.13 215.31C751.13 222.903 749.373 229.533 745.86 235.2C742.46 240.753 738.096 245.23 732.77 248.63L753.68 287.39C754.02 288.07 754.19 288.693 754.19 289.26C754.19 290.28 753.793 291.187 753 291.98C752.32 292.66 751.47 293 750.45 293H715.6C713.333 293 711.633 292.433 710.5 291.3C709.366 290.167 708.63 289.203 708.29 288.41L693.67 255.94H686.7V288.41C686.7 289.657 686.246 290.733 685.34 291.64C684.433 292.547 683.356 293 682.11 293H648.79ZM686.7 223.64H699.11C701.716 223.64 703.643 222.79 704.89 221.09C706.25 219.277 706.93 217.237 706.93 214.97C706.93 212.703 706.306 210.607 705.06 208.68C703.926 206.64 701.943 205.62 699.11 205.62H686.7V223.64ZM771.475 293C770.228 293 769.152 292.547 768.245 291.64C767.338 290.733 766.885 289.657 766.885 288.41V178.59C766.885 177.343 767.338 176.267 768.245 175.36C769.152 174.453 770.228 174 771.475 174H858.685C859.932 174 861.008 174.453 861.915 175.36C862.822 176.267 863.275 177.343 863.275 178.59V202.56C863.275 203.807 862.822 204.883 861.915 205.79C861.008 206.697 859.932 207.15 858.685 207.15H807.685V217.86H854.945C856.192 217.86 857.268 218.313 858.175 219.22C859.082 220.127 859.535 221.203 859.535 222.45V244.55C859.535 245.797 859.082 246.873 858.175 247.78C857.268 248.687 856.192 249.14 854.945 249.14H807.685V259.85H860.045C861.292 259.85 862.368 260.303 863.275 261.21C864.182 262.117 864.635 263.193 864.635 264.44V288.41C864.635 289.657 864.182 290.733 863.275 291.64C862.368 292.547 861.292 293 860.045 293H771.475ZM898.464 293C896.197 293 894.384 292.32 893.024 290.96C891.664 289.487 890.87 288.013 890.644 286.54L875.004 178.25C875.004 178.137 875.004 178.08 875.004 178.08C875.004 177.967 875.004 177.853 875.004 177.74C875.004 176.72 875.344 175.87 876.024 175.19C876.817 174.397 877.724 174 878.744 174H910.364C914.104 174 916.144 175.53 916.484 178.59L922.264 226.53L929.234 205.28C929.46 204.487 929.97 203.467 930.764 202.22C931.557 200.973 932.974 200.35 935.014 200.35H952.354C954.394 200.35 955.81 200.973 956.604 202.22C957.397 203.467 957.907 204.487 958.134 205.28L965.104 226.36L970.884 178.59C971.224 175.53 973.264 174 977.004 174H1008.62C1009.64 174 1010.49 174.397 1011.17 175.19C1011.97 175.87 1012.36 176.72 1012.36 177.74C1012.36 177.853 1012.36 177.967 1012.36 178.08C1012.36 178.08 1012.36 178.137 1012.36 178.25L996.724 286.54C996.61 288.013 995.817 289.487 994.344 290.96C992.984 292.32 991.171 293 988.904 293H964.594C962.327 293 960.627 292.433 959.494 291.3C958.474 290.053 957.851 289.09 957.624 288.41L943.684 253.56L929.744 288.41C929.517 289.09 928.837 290.053 927.704 291.3C926.684 292.433 925.04 293 922.774 293H898.464ZM1015.11 293C1014.09 293 1013.19 292.66 1012.39 291.98C1011.71 291.187 1011.37 290.28 1011.37 289.26C1011.37 288.807 1011.43 288.41 1011.54 288.07L1049.45 179.61C1049.79 178.363 1050.59 177.117 1051.83 175.87C1053.08 174.623 1054.84 174 1057.1 174H1093.99C1096.26 174 1098.02 174.623 1099.26 175.87C1100.51 177.117 1101.3 178.363 1101.64 179.61L1139.55 288.07C1139.67 288.41 1139.72 288.807 1139.72 289.26C1139.72 290.28 1139.33 291.187 1138.53 291.98C1137.85 292.66 1137 293 1135.98 293H1104.53C1102.38 293 1100.79 292.547 1099.77 291.64C1098.87 290.62 1098.24 289.657 1097.9 288.75L1093.82 277.53H1057.27L1053.19 288.75C1052.85 289.657 1052.23 290.62 1051.32 291.64C1050.42 292.547 1048.83 293 1046.56 293H1015.11ZM1065.94 244.38H1085.15L1075.46 212.76L1065.94 244.38ZM1153.64 293C1152.4 293 1151.32 292.547 1150.41 291.64C1149.51 290.733 1149.05 289.657 1149.05 288.41V178.59C1149.05 177.343 1149.51 176.267 1150.41 175.36C1151.32 174.453 1152.4 174 1153.64 174H1203.96C1220.28 174 1233.03 177.683 1242.21 185.05C1251.39 192.417 1255.98 202.503 1255.98 215.31C1255.98 222.903 1254.23 229.533 1250.71 235.2C1247.31 240.753 1242.95 245.23 1237.62 248.63L1258.53 287.39C1258.87 288.07 1259.04 288.693 1259.04 289.26C1259.04 290.28 1258.65 291.187 1257.85 291.98C1257.17 292.66 1256.32 293 1255.3 293H1220.45C1218.19 293 1216.49 292.433 1215.35 291.3C1214.22 290.167 1213.48 289.203 1213.14 288.41L1198.52 255.94H1191.55V288.41C1191.55 289.657 1191.1 290.733 1190.19 291.64C1189.29 292.547 1188.21 293 1186.96 293H1153.64ZM1191.55 223.64H1203.96C1206.57 223.64 1208.5 222.79 1209.74 221.09C1211.1 219.277 1211.78 217.237 1211.78 214.97C1211.78 212.703 1211.16 210.607 1209.91 208.68C1208.78 206.64 1206.8 205.62 1203.96 205.62H1191.55V223.64Z" fill="black"/>
<g filter="url(#filter0_bdddd_299_2185)">
<path d="M198.859 107.279C208.734 101.574 220.903 101.574 230.778 107.279L317.698 157.507C327.562 163.206 333.637 173.733 333.637 185.125V285.628C333.637 297.019 327.562 307.546 317.698 313.246L230.778 363.473C220.903 369.179 208.734 369.179 198.859 363.473L111.938 313.246C102.075 307.546 96 297.019 96 285.628V185.125C96 173.733 102.075 163.206 111.938 157.507L198.859 107.279Z" fill="#242424" fill-opacity="0.8" shape-rendering="crispEdges"/>
<path d="M198.859 107.279C208.734 101.574 220.903 101.574 230.778 107.279L317.698 157.507C327.562 163.206 333.637 173.733 333.637 185.125V285.628C333.637 297.019 327.562 307.546 317.698 313.246L230.778 363.473C220.903 369.179 208.734 369.179 198.859 363.473L111.938 313.246C102.075 307.546 96 297.019 96 285.628V185.125C96 173.733 102.075 163.206 111.938 157.507L198.859 107.279Z" fill="url(#paint0_radial_299_2185)" fill-opacity="0.4" shape-rendering="crispEdges"/>
<path d="M198.859 107.279C208.734 101.574 220.903 101.574 230.778 107.279L317.698 157.507C327.562 163.206 333.637 173.733 333.637 185.125V285.628C333.637 297.019 327.562 307.546 317.698 313.246L230.778 363.473C220.903 369.179 208.734 369.179 198.859 363.473L111.938 313.246C102.075 307.546 96 297.019 96 285.628V185.125C96 173.733 102.075 163.206 111.938 157.507L198.859 107.279Z" fill="url(#paint1_radial_299_2185)" fill-opacity="0.55" shape-rendering="crispEdges"/>
</g>
<g filter="url(#filter1_d_299_2185)">
<path d="M226.997 137.846C230.416 137.846 233.575 139.67 235.284 142.63L247.303 163.448C249.012 166.408 249.012 170.056 247.303 173.017L235.284 193.834C233.575 196.795 230.416 198.619 226.997 198.619L202.959 198.619C199.54 198.619 196.381 196.795 194.672 193.834L182.653 173.017C180.944 170.056 180.944 166.408 182.653 163.448L194.672 142.63C196.381 139.67 199.54 137.846 202.959 137.846L226.997 137.846Z" fill="#FF006E"/>
</g>
<path d="M226.997 204.914C230.416 204.914 233.575 206.738 235.284 209.699L247.303 230.516C249.012 233.477 249.012 237.124 247.303 240.085L235.284 260.902C233.575 263.863 230.416 265.687 226.997 265.687L202.959 265.687C199.54 265.687 196.381 263.863 194.672 260.902L182.653 240.085C180.944 237.124 180.944 233.477 182.653 230.516L194.672 209.699C196.381 206.738 199.54 204.914 202.959 204.914L226.997 204.914Z" fill="white"/>
<g filter="url(#filter2_d_299_2185)">
<path d="M285.05 171.422C288.468 171.422 291.627 173.246 293.337 176.207L305.356 197.024C307.065 199.984 307.065 203.632 305.356 206.593L293.337 227.41C291.627 230.371 288.468 232.195 285.05 232.195L261.012 232.195C257.593 232.195 254.434 230.371 252.725 227.41L240.706 206.593C238.996 203.632 238.996 199.984 240.706 197.024L252.725 176.207C254.434 173.246 257.593 171.422 261.012 171.422L285.05 171.422Z" fill="#00FFFF"/>
</g>
<path d="M168.944 171.422C172.363 171.422 175.522 173.246 177.231 176.207L189.25 197.024C190.96 199.984 190.96 203.632 189.25 206.593L177.231 227.41C175.522 230.371 172.363 232.195 168.944 232.195L144.906 232.195C141.488 232.195 138.329 230.371 136.619 227.41L124.6 206.593C122.891 203.632 122.891 199.984 124.6 197.024L136.619 176.207C138.329 173.246 141.488 171.422 144.906 171.422L168.944 171.422Z" fill="white"/>
<g filter="url(#filter3_d_299_2185)">
<path d="M226.997 271.899C230.416 271.899 233.575 273.723 235.284 276.684L247.303 297.501C249.012 300.462 249.012 304.109 247.303 307.07L235.284 327.887C233.575 330.848 230.416 332.672 226.997 332.672L202.959 332.672C199.54 332.672 196.381 330.848 194.672 327.887L182.653 307.07C180.944 304.109 180.944 300.462 182.653 297.501L194.672 276.684C196.381 273.723 199.54 271.899 202.959 271.899L226.997 271.899Z" fill="#FF006E"/>
</g>
<path d="M285.05 238.407C288.468 238.407 291.627 240.231 293.337 243.191L305.356 264.009C307.065 266.969 307.065 270.617 305.356 273.578L293.337 294.395C291.627 297.356 288.468 299.18 285.05 299.18L261.012 299.18C257.593 299.18 254.434 297.356 252.725 294.395L240.706 273.578C238.996 270.617 238.996 266.969 240.706 264.009L252.725 243.191C254.434 240.231 257.593 238.407 261.012 238.407L285.05 238.407Z" fill="white"/>
<g filter="url(#filter4_d_299_2185)">
<path d="M168.944 238.407C172.363 238.407 175.522 240.231 177.231 243.191L189.25 264.009C190.96 266.969 190.96 270.617 189.25 273.578L177.231 294.395C175.522 297.356 172.363 299.18 168.944 299.18L144.906 299.18C141.488 299.18 138.329 297.356 136.619 294.395L124.6 273.578C122.891 270.617 122.891 266.969 124.6 264.009L136.619 243.191C138.329 240.231 141.488 238.407 144.906 238.407L168.944 238.407Z" fill="#00FFFF"/>
</g>
<defs>
<filter id="filter0_bdddd_299_2185" x="-9" y="-2" width="457.637" height="484.753" filterUnits="userSpaceOnUse" color-interpolation-filters="sRGB">
<feFlood flood-opacity="0" result="BackgroundImageFix"/>
<feGaussianBlur in="BackgroundImageFix" stdDeviation="10"/>
<feComposite in2="SourceAlpha" operator="in" result="effect1_backgroundBlur_299_2185"/>
<feColorMatrix in="SourceAlpha" type="matrix" values="0 0 0 0 0 0 0 0 0 0 0 0 0 0 0 0 0 0 127 0" result="hardAlpha"/>
<feOffset dx="30" dy="30"/>
<feGaussianBlur stdDeviation="42.5"/>
<feComposite in2="hardAlpha" operator="out"/>
<feColorMatrix type="matrix" values="0 0 0 0 1 0 0 0 0 0 0 0 0 0 0.431373 0 0 0 0.4 0"/>
<feBlend mode="normal" in2="effect1_backgroundBlur_299_2185" result="effect2_dropShadow_299_2185"/>
<feColorMatrix in="SourceAlpha" type="matrix" values="0 0 0 0 0 0 0 0 0 0 0 0 0 0 0 0 0 0 127 0" result="hardAlpha"/>
<feOffset dx="-20" dy="-20"/>
<feGaussianBlur stdDeviation="42.5"/>
<feComposite in2="hardAlpha" operator="out"/>
<feColorMatrix type="matrix" values="0 0 0 0 0 0 0 0 0 1 0 0 0 0 1 0 0 0 0.37 0"/>
<feBlend mode="normal" in2="effect2_dropShadow_299_2185" result="effect3_dropShadow_299_2185"/>
<feColorMatrix in="SourceAlpha" type="matrix" values="0 0 0 0 0 0 0 0 0 0 0 0 0 0 0 0 0 0 127 0" result="hardAlpha"/>
<feOffset dx="-1" dy="-1"/>
<feComposite in2="hardAlpha" operator="out"/>
<feColorMatrix type="matrix" values="0 0 0 0 1 0 0 0 0 1 0 0 0 0 1 0 0 0 0.25 0"/>
<feBlend mode="normal" in2="effect3_dropShadow_299_2185" result="effect4_dropShadow_299_2185"/>
<feColorMatrix in="SourceAlpha" type="matrix" values="0 0 0 0 0 0 0 0 0 0 0 0 0 0 0 0 0 0 127 0" result="hardAlpha"/>
<feOffset dx="1" dy="1"/>
<feComposite in2="hardAlpha" operator="out"/>
<feColorMatrix type="matrix" values="0 0 0 0 0 0 0 0 0 0 0 0 0 0 0 0 0 0 0.4 0"/>
<feBlend mode="normal" in2="effect4_dropShadow_299_2185" result="effect5_dropShadow_299_2185"/>
<feBlend mode="normal" in="SourceGraphic" in2="effect5_dropShadow_299_2185" result="shape"/>
</filter>
<filter id="filter1_d_299_2185" x="161.371" y="122.846" width="107.213" height="100.773" filterUnits="userSpaceOnUse" color-interpolation-filters="sRGB">
<feFlood flood-opacity="0" result="BackgroundImageFix"/>
<feColorMatrix in="SourceAlpha" type="matrix" values="0 0 0 0 0 0 0 0 0 0 0 0 0 0 0 0 0 0 127 0" result="hardAlpha"/>
<feOffset dy="5"/>
<feGaussianBlur stdDeviation="10"/>
<feComposite in2="hardAlpha" operator="out"/>
<feColorMatrix type="matrix" values="0 0 0 0 1 0 0 0 0 0 0 0 0 0 0.431373 0 0 0 0.33 0"/>
<feBlend mode="normal" in2="BackgroundImageFix" result="effect1_dropShadow_299_2185"/>
<feBlend mode="normal" in="SourceGraphic" in2="effect1_dropShadow_299_2185" result="shape"/>
</filter>
<filter id="filter2_d_299_2185" x="219.424" y="156.422" width="107.213" height="100.773" filterUnits="userSpaceOnUse" color-interpolation-filters="sRGB">
<feFlood flood-opacity="0" result="BackgroundImageFix"/>
<feColorMatrix in="SourceAlpha" type="matrix" values="0 0 0 0 0 0 0 0 0 0 0 0 0 0 0 0 0 0 127 0" result="hardAlpha"/>
<feOffset dy="5"/>
<feGaussianBlur stdDeviation="10"/>
<feComposite in2="hardAlpha" operator="out"/>
<feColorMatrix type="matrix" values="0 0 0 0 0 0 0 0 0 1 0 0 0 0 1 0 0 0 0.3 0"/>
<feBlend mode="normal" in2="BackgroundImageFix" result="effect1_dropShadow_299_2185"/>
<feBlend mode="normal" in="SourceGraphic" in2="effect1_dropShadow_299_2185" result="shape"/>
</filter>
<filter id="filter3_d_299_2185" x="161.371" y="256.899" width="107.213" height="100.773" filterUnits="userSpaceOnUse" color-interpolation-filters="sRGB">
<feFlood flood-opacity="0" result="BackgroundImageFix"/>
<feColorMatrix in="SourceAlpha" type="matrix" values="0 0 0 0 0 0 0 0 0 0 0 0 0 0 0 0 0 0 127 0" result="hardAlpha"/>
<feOffset dy="5"/>
<feGaussianBlur stdDeviation="10"/>
<feComposite in2="hardAlpha" operator="out"/>
<feColorMatrix type="matrix" values="0 0 0 0 1 0 0 0 0 0 0 0 0 0 0.431373 0 0 0 0.33 0"/>
<feBlend mode="normal" in2="BackgroundImageFix" result="effect1_dropShadow_299_2185"/>
<feBlend mode="normal" in="SourceGraphic" in2="effect1_dropShadow_299_2185" result="shape"/>
</filter>
<filter id="filter4_d_299_2185" x="103.318" y="223.407" width="107.213" height="100.773" filterUnits="userSpaceOnUse" color-interpolation-filters="sRGB">
<feFlood flood-opacity="0" result="BackgroundImageFix"/>
<feColorMatrix in="SourceAlpha" type="matrix" values="0 0 0 0 0 0 0 0 0 0 0 0 0 0 0 0 0 0 127 0" result="hardAlpha"/>
<feOffset dy="5"/>
<feGaussianBlur stdDeviation="10"/>
<feComposite in2="hardAlpha" operator="out"/>
<feColorMatrix type="matrix" values="0 0 0 0 0 0 0 0 0 1 0 0 0 0 1 0 0 0 0.3 0"/>
<feBlend mode="normal" in2="BackgroundImageFix" result="effect1_dropShadow_299_2185"/>
<feBlend mode="normal" in="SourceGraphic" in2="effect1_dropShadow_299_2185" result="shape"/>
</filter>
<radialGradient id="paint0_radial_299_2185" cx="0" cy="0" r="1" gradientUnits="userSpaceOnUse" gradientTransform="translate(162 187.5) rotate(22.6199) scale(123.5 153.694)">
<stop stop-color="#00FFFF"/>
<stop offset="1" stop-color="#00FFFF" stop-opacity="0"/>
</radialGradient>
<radialGradient id="paint1_radial_299_2185" cx="0" cy="0" r="1" gradientUnits="userSpaceOnUse" gradientTransform="translate(273.5 285) rotate(-142.367) scale(135.112 176.464)">
<stop stop-color="#FF006E"/>
<stop offset="1" stop-color="#FF006E" stop-opacity="0"/>
</radialGradient>
</defs>
</svg>
