<svg width="1615" height="433" viewBox="0 0 1615 433" fill="none" xmlns="http://www.w3.org/2000/svg">
<path d="M456.424 297.92C444.136 297.92 433.256 296.128 423.784 292.544C414.312 288.96 406.76 283.328 401.128 275.648C395.624 267.968 392.616 258.048 392.104 245.888C391.976 240.64 391.912 235.008 391.912 228.992C391.912 222.976 391.976 217.216 392.104 211.712C392.616 199.808 395.688 190.016 401.32 182.336C407.08 174.656 414.696 168.96 424.168 165.248C433.768 161.536 444.52 159.68 456.424 159.68C464.616 159.68 472.488 160.64 480.04 162.56C487.72 164.352 494.632 167.232 500.776 171.2C506.92 175.168 511.784 180.288 515.368 186.56C519.08 192.704 521 200.128 521.128 208.832C521.128 209.984 520.68 211.008 519.784 211.904C519.016 212.672 518.056 213.056 516.904 213.056H477.736C475.688 213.056 474.152 212.672 473.128 211.904C472.232 211.008 471.4 209.536 470.632 207.488C469.224 203.392 467.304 200.64 464.872 199.232C462.44 197.824 459.56 197.12 456.232 197.12C452.008 197.12 448.616 198.272 446.056 200.576C443.624 202.752 442.28 206.784 442.024 212.672C441.64 223.168 441.64 233.92 442.024 244.928C442.28 250.816 443.624 254.912 446.056 257.216C448.616 259.392 452.008 260.48 456.232 260.48C459.56 260.48 462.44 259.712 464.872 258.176C467.432 256.64 469.352 253.952 470.632 250.112C471.272 247.936 472.104 246.464 473.128 245.696C474.152 244.928 475.688 244.544 477.736 244.544H516.904C518.056 244.544 519.016 244.992 519.784 245.888C520.68 246.656 521.128 247.616 521.128 248.768C521 257.472 519.08 264.96 515.368 271.232C511.784 277.376 506.92 282.432 500.776 286.4C494.632 290.368 487.72 293.312 480.04 295.232C472.488 297.024 464.616 297.92 456.424 297.92ZM597.045 297.92C584.501 297.92 573.493 296 564.021 292.16C554.677 288.32 547.253 282.56 541.749 274.88C536.373 267.072 533.429 257.472 532.917 246.08C532.789 240.832 532.725 235.264 532.725 229.376C532.725 223.488 532.789 217.792 532.917 212.288C533.429 201.024 536.373 191.488 541.749 183.68C547.125 175.872 554.549 169.92 564.021 165.824C573.493 161.728 584.501 159.68 597.045 159.68C609.589 159.68 620.597 161.728 630.069 165.824C639.541 169.92 646.965 175.872 652.341 183.68C657.845 191.488 660.789 201.024 661.173 212.288C661.429 217.792 661.557 223.488 661.557 229.376C661.557 235.264 661.429 240.832 661.173 246.08C660.661 257.472 657.653 267.072 652.149 274.88C646.773 282.56 639.349 288.32 629.877 292.16C620.533 296 609.589 297.92 597.045 297.92ZM597.045 260.48C601.269 260.48 604.661 259.264 607.221 256.832C609.781 254.272 611.125 250.304 611.253 244.928C611.509 239.424 611.637 233.984 611.637 228.608C611.637 223.232 611.509 217.92 611.253 212.672C611.125 209.088 610.421 206.144 609.141 203.84C607.989 201.536 606.389 199.872 604.341 198.848C602.293 197.696 599.861 197.12 597.045 197.12C594.357 197.12 591.925 197.696 589.749 198.848C587.701 199.872 586.037 201.536 584.757 203.84C583.605 206.144 582.965 209.088 582.837 212.672C582.709 217.92 582.645 223.232 582.645 228.608C582.645 233.984 582.709 239.424 582.837 244.928C583.093 250.304 584.437 254.272 586.869 256.832C589.429 259.264 592.821 260.48 597.045 260.48ZM684.057 296C682.649 296 681.433 295.488 680.409 294.464C679.385 293.44 678.873 292.224 678.873 290.816V166.784C678.873 165.376 679.385 164.16 680.409 163.136C681.433 162.112 682.649 161.6 684.057 161.6H740.889C759.321 161.6 773.721 165.76 784.089 174.08C794.457 182.4 799.641 193.792 799.641 208.256C799.641 216.832 797.657 224.32 793.689 230.72C789.849 236.992 784.921 242.048 778.905 245.888L802.521 289.664C802.905 290.432 803.097 291.136 803.097 291.776C803.097 292.928 802.649 293.952 801.753 294.848C800.985 295.616 800.025 296 798.873 296H759.513C756.953 296 755.033 295.36 753.753 294.08C752.473 292.8 751.641 291.712 751.257 290.816L734.745 254.144H726.873V290.816C726.873 292.224 726.361 293.44 725.337 294.464C724.313 295.488 723.097 296 721.689 296H684.057ZM726.873 217.664H740.889C743.833 217.664 746.009 216.704 747.417 214.784C748.953 212.736 749.721 210.432 749.721 207.872C749.721 205.312 749.017 202.944 747.609 200.768C746.329 198.464 744.089 197.312 740.889 197.312H726.873V217.664ZM822.619 296C821.211 296 819.995 295.488 818.971 294.464C817.947 293.44 817.435 292.224 817.435 290.816V166.784C817.435 165.376 817.947 164.16 818.971 163.136C819.995 162.112 821.211 161.6 822.619 161.6H921.115C922.523 161.6 923.739 162.112 924.763 163.136C925.787 164.16 926.299 165.376 926.299 166.784V193.856C926.299 195.264 925.787 196.48 924.763 197.504C923.739 198.528 922.523 199.04 921.115 199.04H863.515V211.136H916.891C918.299 211.136 919.515 211.648 920.539 212.672C921.563 213.696 922.075 214.912 922.075 216.32V241.28C922.075 242.688 921.563 243.904 920.539 244.928C919.515 245.952 918.299 246.464 916.891 246.464H863.515V258.56H922.651C924.059 258.56 925.275 259.072 926.299 260.096C927.323 261.12 927.835 262.336 927.835 263.744V290.816C927.835 292.224 927.323 293.44 926.299 294.464C925.275 295.488 924.059 296 922.651 296H822.619ZM966.042 296C963.482 296 961.434 295.232 959.898 293.696C958.362 292.032 957.466 290.368 957.21 288.704L939.546 166.4C939.546 166.272 939.546 166.208 939.546 166.208C939.546 166.08 939.546 165.952 939.546 165.824C939.546 164.672 939.93 163.712 940.698 162.944C941.594 162.048 942.618 161.6 943.77 161.6H979.482C983.706 161.6 986.01 163.328 986.394 166.784L992.922 220.928L1000.79 196.928C1001.05 196.032 1001.63 194.88 1002.52 193.472C1003.42 192.064 1005.02 191.36 1007.32 191.36H1026.91C1029.21 191.36 1030.81 192.064 1031.71 193.472C1032.6 194.88 1033.18 196.032 1033.43 196.928L1041.31 220.736L1047.83 166.784C1048.22 163.328 1050.52 161.6 1054.75 161.6H1090.46C1091.61 161.6 1092.57 162.048 1093.34 162.944C1094.23 163.712 1094.68 164.672 1094.68 165.824C1094.68 165.952 1094.68 166.08 1094.68 166.208C1094.68 166.208 1094.68 166.272 1094.68 166.4L1077.02 288.704C1076.89 290.368 1075.99 292.032 1074.33 293.696C1072.79 295.232 1070.75 296 1068.19 296H1040.73C1038.17 296 1036.25 295.36 1034.97 294.08C1033.82 292.672 1033.11 291.584 1032.86 290.816L1017.11 251.456L1001.37 290.816C1001.11 291.584 1000.35 292.672 999.066 294.08C997.914 295.36 996.058 296 993.498 296H966.042ZM1097.79 296C1096.63 296 1095.61 295.616 1094.71 294.848C1093.95 293.952 1093.56 292.928 1093.56 291.776C1093.56 291.264 1093.63 290.816 1093.75 290.432L1136.57 167.936C1136.95 166.528 1137.85 165.12 1139.26 163.712C1140.67 162.304 1142.65 161.6 1145.21 161.6H1186.87C1189.43 161.6 1191.42 162.304 1192.83 163.712C1194.23 165.12 1195.13 166.528 1195.51 167.936L1238.33 290.432C1238.46 290.816 1238.52 291.264 1238.52 291.776C1238.52 292.928 1238.07 293.952 1237.18 294.848C1236.41 295.616 1235.45 296 1234.3 296H1198.78C1196.35 296 1194.55 295.488 1193.4 294.464C1192.38 293.312 1191.67 292.224 1191.29 291.2L1186.68 278.528H1145.4L1140.79 291.2C1140.41 292.224 1139.71 293.312 1138.68 294.464C1137.66 295.488 1135.87 296 1133.31 296H1097.79ZM1155.19 241.088H1176.89L1165.95 205.376L1155.19 241.088ZM1254.24 296C1252.84 296 1251.62 295.488 1250.6 294.464C1249.57 293.44 1249.06 292.224 1249.06 290.816V166.784C1249.06 165.376 1249.57 164.16 1250.6 163.136C1251.62 162.112 1252.84 161.6 1254.24 161.6H1311.08C1329.51 161.6 1343.91 165.76 1354.28 174.08C1364.64 182.4 1369.83 193.792 1369.83 208.256C1369.83 216.832 1367.84 224.32 1363.88 230.72C1360.04 236.992 1355.11 242.048 1349.09 245.888L1372.71 289.664C1373.09 290.432 1373.28 291.136 1373.28 291.776C1373.28 292.928 1372.84 293.952 1371.94 294.848C1371.17 295.616 1370.21 296 1369.06 296H1329.7C1327.14 296 1325.22 295.36 1323.94 294.08C1322.66 292.8 1321.83 291.712 1321.44 290.816L1304.93 254.144H1297.06V290.816C1297.06 292.224 1296.55 293.44 1295.52 294.464C1294.5 295.488 1293.28 296 1291.88 296H1254.24ZM1297.06 217.664H1311.08C1314.02 217.664 1316.2 216.704 1317.6 214.784C1319.14 212.736 1319.91 210.432 1319.91 207.872C1319.91 205.312 1319.2 202.944 1317.8 200.768C1316.52 198.464 1314.28 197.312 1311.08 197.312H1297.06V217.664Z" fill="black"/>
<g filter="url(#filter0_bdddd_299_2185)">
<path d="M198.859 102.279C208.734 96.5735 220.903 96.5735 230.778 102.279L317.698 152.507C327.562 158.206 333.637 168.733 333.637 180.125V280.628C333.637 292.019 327.562 302.546 317.698 308.246L230.778 358.473C220.903 364.179 208.734 364.179 198.859 358.473L111.938 308.246C102.075 302.546 96 292.019 96 280.628V180.125C96 168.733 102.075 158.206 111.938 152.507L198.859 102.279Z" fill="#242424" fill-opacity="0.8" shape-rendering="crispEdges"/>
<path d="M198.859 102.279C208.734 96.5735 220.903 96.5735 230.778 102.279L317.698 152.507C327.562 158.206 333.637 168.733 333.637 180.125V280.628C333.637 292.019 327.562 302.546 317.698 308.246L230.778 358.473C220.903 364.179 208.734 364.179 198.859 358.473L111.938 308.246C102.075 302.546 96 292.019 96 280.628V180.125C96 168.733 102.075 158.206 111.938 152.507L198.859 102.279Z" fill="url(#paint0_radial_299_2185)" fill-opacity="0.4" shape-rendering="crispEdges"/>
<path d="M198.859 102.279C208.734 96.5735 220.903 96.5735 230.778 102.279L317.698 152.507C327.562 158.206 333.637 168.733 333.637 180.125V280.628C333.637 292.019 327.562 302.546 317.698 308.246L230.778 358.473C220.903 364.179 208.734 364.179 198.859 358.473L111.938 308.246C102.075 302.546 96 292.019 96 280.628V180.125C96 168.733 102.075 158.206 111.938 152.507L198.859 102.279Z" fill="url(#paint1_radial_299_2185)" fill-opacity="0.55" shape-rendering="crispEdges"/>
</g>
<g filter="url(#filter1_d_299_2185)">
<path d="M226.997 132.846C230.416 132.846 233.575 134.67 235.284 137.63L247.303 158.448C249.012 161.408 249.012 165.056 247.303 168.017L235.284 188.834C233.575 191.795 230.416 193.619 226.997 193.619L202.959 193.619C199.54 193.619 196.381 191.795 194.672 188.834L182.653 168.017C180.944 165.056 180.944 161.408 182.653 158.448L194.672 137.63C196.381 134.67 199.54 132.846 202.959 132.846L226.997 132.846Z" fill="#FF006E"/>
</g>
<path d="M226.997 199.914C230.416 199.914 233.575 201.738 235.284 204.699L247.303 225.516C249.012 228.477 249.012 232.124 247.303 235.085L235.284 255.902C233.575 258.863 230.416 260.687 226.997 260.687L202.959 260.687C199.54 260.687 196.381 258.863 194.672 255.902L182.653 235.085C180.944 232.124 180.944 228.477 182.653 225.516L194.672 204.699C196.381 201.738 199.54 199.914 202.959 199.914L226.997 199.914Z" fill="white"/>
<g filter="url(#filter2_d_299_2185)">
<path d="M285.05 166.422C288.468 166.422 291.627 168.246 293.337 171.207L305.356 192.024C307.065 194.984 307.065 198.632 305.356 201.593L293.337 222.41C291.627 225.371 288.468 227.195 285.05 227.195L261.012 227.195C257.593 227.195 254.434 225.371 252.725 222.41L240.706 201.593C238.996 198.632 238.996 194.984 240.706 192.024L252.725 171.207C254.434 168.246 257.593 166.422 261.012 166.422L285.05 166.422Z" fill="#00FFFF"/>
</g>
<path d="M168.944 166.422C172.363 166.422 175.522 168.246 177.231 171.207L189.25 192.024C190.96 194.984 190.96 198.632 189.25 201.593L177.231 222.41C175.522 225.371 172.363 227.195 168.944 227.195L144.906 227.195C141.488 227.195 138.329 225.371 136.619 222.41L124.6 201.593C122.891 198.632 122.891 194.984 124.6 192.024L136.619 171.207C138.329 168.246 141.488 166.422 144.906 166.422L168.944 166.422Z" fill="white"/>
<g filter="url(#filter3_d_299_2185)">
<path d="M226.997 266.899C230.416 266.899 233.575 268.723 235.284 271.684L247.303 292.501C249.012 295.462 249.012 299.109 247.303 302.07L235.284 322.887C233.575 325.848 230.416 327.672 226.997 327.672L202.959 327.672C199.54 327.672 196.381 325.848 194.672 322.887L182.653 302.07C180.944 299.109 180.944 295.462 182.653 292.501L194.672 271.684C196.381 268.723 199.54 266.899 202.959 266.899L226.997 266.899Z" fill="#FF006E"/>
</g>
<path d="M285.05 233.407C288.468 233.407 291.627 235.231 293.337 238.191L305.356 259.009C307.065 261.969 307.065 265.617 305.356 268.578L293.337 289.395C291.627 292.356 288.468 294.18 285.05 294.18L261.012 294.18C257.593 294.18 254.434 292.356 252.725 289.395L240.706 268.578C238.996 265.617 238.996 261.969 240.706 259.009L252.725 238.191C254.434 235.231 257.593 233.407 261.012 233.407L285.05 233.407Z" fill="white"/>
<g filter="url(#filter4_d_299_2185)">
<path d="M168.944 233.407C172.363 233.407 175.522 235.231 177.231 238.191L189.25 259.009C190.96 261.969 190.96 265.617 189.25 268.578L177.231 289.395C175.522 292.356 172.363 294.18 168.944 294.18L144.906 294.18C141.488 294.18 138.329 292.356 136.619 289.395L124.6 268.578C122.891 265.617 122.891 261.969 124.6 259.009L136.619 238.191C138.329 235.231 141.488 233.407 144.906 233.407L168.944 233.407Z" fill="#00FFFF"/>
</g>
<defs>
<filter id="filter0_bdddd_299_2185" x="-9" y="-7" width="457.637" height="484.753" filterUnits="userSpaceOnUse" color-interpolation-filters="sRGB">
<feFlood flood-opacity="0" result="BackgroundImageFix"/>
<feGaussianBlur in="BackgroundImageFix" stdDeviation="10"/>
<feComposite in2="SourceAlpha" operator="in" result="effect1_backgroundBlur_299_2185"/>
<feColorMatrix in="SourceAlpha" type="matrix" values="0 0 0 0 0 0 0 0 0 0 0 0 0 0 0 0 0 0 127 0" result="hardAlpha"/>
<feOffset dx="30" dy="30"/>
<feGaussianBlur stdDeviation="42.5"/>
<feComposite in2="hardAlpha" operator="out"/>
<feColorMatrix type="matrix" values="0 0 0 0 1 0 0 0 0 0 0 0 0 0 0.431373 0 0 0 0.4 0"/>
<feBlend mode="normal" in2="effect1_backgroundBlur_299_2185" result="effect2_dropShadow_299_2185"/>
<feColorMatrix in="SourceAlpha" type="matrix" values="0 0 0 0 0 0 0 0 0 0 0 0 0 0 0 0 0 0 127 0" result="hardAlpha"/>
<feOffset dx="-20" dy="-20"/>
<feGaussianBlur stdDeviation="42.5"/>
<feComposite in2="hardAlpha" operator="out"/>
<feColorMatrix type="matrix" values="0 0 0 0 0 0 0 0 0 1 0 0 0 0 1 0 0 0 0.37 0"/>
<feBlend mode="normal" in2="effect2_dropShadow_299_2185" result="effect3_dropShadow_299_2185"/>
<feColorMatrix in="SourceAlpha" type="matrix" values="0 0 0 0 0 0 0 0 0 0 0 0 0 0 0 0 0 0 127 0" result="hardAlpha"/>
<feOffset dx="-1" dy="-1"/>
<feComposite in2="hardAlpha" operator="out"/>
<feColorMatrix type="matrix" values="0 0 0 0 1 0 0 0 0 1 0 0 0 0 1 0 0 0 0.25 0"/>
<feBlend mode="normal" in2="effect3_dropShadow_299_2185" result="effect4_dropShadow_299_2185"/>
<feColorMatrix in="SourceAlpha" type="matrix" values="0 0 0 0 0 0 0 0 0 0 0 0 0 0 0 0 0 0 127 0" result="hardAlpha"/>
<feOffset dx="1" dy="1"/>
<feComposite in2="hardAlpha" operator="out"/>
<feColorMatrix type="matrix" values="0 0 0 0 0 0 0 0 0 0 0 0 0 0 0 0 0 0 0.4 0"/>
<feBlend mode="normal" in2="effect4_dropShadow_299_2185" result="effect5_dropShadow_299_2185"/>
<feBlend mode="normal" in="SourceGraphic" in2="effect5_dropShadow_299_2185" result="shape"/>
</filter>
<filter id="filter1_d_299_2185" x="161.371" y="117.846" width="107.213" height="100.773" filterUnits="userSpaceOnUse" color-interpolation-filters="sRGB">
<feFlood flood-opacity="0" result="BackgroundImageFix"/>
<feColorMatrix in="SourceAlpha" type="matrix" values="0 0 0 0 0 0 0 0 0 0 0 0 0 0 0 0 0 0 127 0" result="hardAlpha"/>
<feOffset dy="5"/>
<feGaussianBlur stdDeviation="10"/>
<feComposite in2="hardAlpha" operator="out"/>
<feColorMatrix type="matrix" values="0 0 0 0 1 0 0 0 0 0 0 0 0 0 0.431373 0 0 0 0.33 0"/>
<feBlend mode="normal" in2="BackgroundImageFix" result="effect1_dropShadow_299_2185"/>
<feBlend mode="normal" in="SourceGraphic" in2="effect1_dropShadow_299_2185" result="shape"/>
</filter>
<filter id="filter2_d_299_2185" x="219.424" y="151.422" width="107.213" height="100.773" filterUnits="userSpaceOnUse" color-interpolation-filters="sRGB">
<feFlood flood-opacity="0" result="BackgroundImageFix"/>
<feColorMatrix in="SourceAlpha" type="matrix" values="0 0 0 0 0 0 0 0 0 0 0 0 0 0 0 0 0 0 127 0" result="hardAlpha"/>
<feOffset dy="5"/>
<feGaussianBlur stdDeviation="10"/>
<feComposite in2="hardAlpha" operator="out"/>
<feColorMatrix type="matrix" values="0 0 0 0 0 0 0 0 0 1 0 0 0 0 1 0 0 0 0.3 0"/>
<feBlend mode="normal" in2="BackgroundImageFix" result="effect1_dropShadow_299_2185"/>
<feBlend mode="normal" in="SourceGraphic" in2="effect1_dropShadow_299_2185" result="shape"/>
</filter>
<filter id="filter3_d_299_2185" x="161.371" y="251.899" width="107.213" height="100.773" filterUnits="userSpaceOnUse" color-interpolation-filters="sRGB">
<feFlood flood-opacity="0" result="BackgroundImageFix"/>
<feColorMatrix in="SourceAlpha" type="matrix" values="0 0 0 0 0 0 0 0 0 0 0 0 0 0 0 0 0 0 127 0" result="hardAlpha"/>
<feOffset dy="5"/>
<feGaussianBlur stdDeviation="10"/>
<feComposite in2="hardAlpha" operator="out"/>
<feColorMatrix type="matrix" values="0 0 0 0 1 0 0 0 0 0 0 0 0 0 0.431373 0 0 0 0.33 0"/>
<feBlend mode="normal" in2="BackgroundImageFix" result="effect1_dropShadow_299_2185"/>
<feBlend mode="normal" in="SourceGraphic" in2="effect1_dropShadow_299_2185" result="shape"/>
</filter>
<filter id="filter4_d_299_2185" x="103.318" y="218.407" width="107.213" height="100.773" filterUnits="userSpaceOnUse" color-interpolation-filters="sRGB">
<feFlood flood-opacity="0" result="BackgroundImageFix"/>
<feColorMatrix in="SourceAlpha" type="matrix" values="0 0 0 0 0 0 0 0 0 0 0 0 0 0 0 0 0 0 127 0" result="hardAlpha"/>
<feOffset dy="5"/>
<feGaussianBlur stdDeviation="10"/>
<feComposite in2="hardAlpha" operator="out"/>
<feColorMatrix type="matrix" values="0 0 0 0 0 0 0 0 0 1 0 0 0 0 1 0 0 0 0.3 0"/>
<feBlend mode="normal" in2="BackgroundImageFix" result="effect1_dropShadow_299_2185"/>
<feBlend mode="normal" in="SourceGraphic" in2="effect1_dropShadow_299_2185" result="shape"/>
</filter>
<radialGradient id="paint0_radial_299_2185" cx="0" cy="0" r="1" gradientUnits="userSpaceOnUse" gradientTransform="translate(162 182.5) rotate(22.6199) scale(123.5 153.694)">
<stop stop-color="#00FFFF"/>
<stop offset="1" stop-color="#00FFFF" stop-opacity="0"/>
</radialGradient>
<radialGradient id="paint1_radial_299_2185" cx="0" cy="0" r="1" gradientUnits="userSpaceOnUse" gradientTransform="translate(273.5 280) rotate(-142.367) scale(135.112 176.464)">
<stop stop-color="#FF006E"/>
<stop offset="1" stop-color="#FF006E" stop-opacity="0"/>
</radialGradient>
</defs>
</svg>
