<svg width="460" height="512" viewBox="0 0 460 512" fill="none" xmlns="http://www.w3.org/2000/svg">
<path d="M199.107 8.27597C218.222 -2.75866 241.778 -2.75866 260.893 8.27598L429.148 105.41C448.24 116.432 460 136.79 460 158.82V353.18C460 375.21 448.24 395.568 429.148 406.59L260.893 503.724C241.778 514.759 218.222 514.759 199.107 503.724L30.8523 406.59C11.7597 395.568 0 375.21 0 353.18V158.82C0 136.79 11.7597 116.432 30.8524 105.41L199.107 8.27597Z" fill="black"/>
<path d="M253.574 67.3867C260.192 67.3867 266.307 70.9139 269.616 76.6396L292.881 116.898C296.19 122.623 296.19 129.678 292.881 135.403L269.616 175.661C266.307 181.387 260.192 184.914 253.574 184.914L207.044 184.914C200.426 184.914 194.311 181.387 191.002 175.661L167.737 135.403C164.428 129.678 164.428 122.623 167.737 116.898L191.002 76.6396C194.311 70.9139 200.426 67.3867 207.044 67.3867L253.574 67.3867Z" fill="#FF006E"/>
<path d="M253.574 197.09C260.192 197.09 266.307 200.617 269.616 206.343L292.881 246.601C296.19 252.326 296.19 259.381 292.881 265.107L269.616 305.365C266.307 311.09 260.192 314.618 253.574 314.618L207.044 314.618C200.426 314.618 194.311 311.09 191.002 305.365L167.737 265.107C164.428 259.381 164.428 252.326 167.737 246.601L191.002 206.343C194.311 200.617 200.426 197.09 207.044 197.09L253.574 197.09Z" fill="#F2F6FF"/>
<path d="M365.95 132.319C372.568 132.319 378.683 135.847 381.992 141.572L405.257 181.83C408.566 187.556 408.566 194.61 405.257 200.336L381.992 240.594C378.683 246.32 372.568 249.847 365.95 249.847L319.419 249.847C312.802 249.847 306.687 246.32 303.378 240.594L280.112 200.336C276.804 194.61 276.804 187.556 280.112 181.83L303.378 141.572C306.687 135.847 312.802 132.319 319.419 132.319L365.95 132.319Z" fill="#00FFFF"/>
<path d="M141.198 132.319C147.816 132.319 153.931 135.847 157.24 141.572L180.505 181.83C183.814 187.556 183.814 194.61 180.505 200.336L157.24 240.594C153.931 246.32 147.816 249.847 141.198 249.847L94.6677 249.847C88.0499 249.847 81.9348 246.32 78.6259 240.594L55.3607 200.336C52.0518 194.61 52.0518 187.556 55.3607 181.83L78.6259 141.572C81.9348 135.847 88.0499 132.319 94.6677 132.319L141.198 132.319Z" fill="#F2F6FF"/>
<path d="M253.574 326.631C260.192 326.631 266.307 330.158 269.616 335.884L292.881 376.142C296.19 381.868 296.19 388.922 292.881 394.648L269.616 434.906C266.307 440.631 260.192 444.159 253.574 444.159L207.044 444.159C200.426 444.159 194.311 440.631 191.002 434.906L167.737 394.648C164.428 388.922 164.428 381.868 167.737 376.142L191.002 335.884C194.311 330.158 200.426 326.631 207.044 326.631L253.574 326.631Z" fill="#FF006E"/>
<path d="M365.95 261.86C372.568 261.86 378.683 265.388 381.992 271.113L405.257 311.371C408.566 317.097 408.566 324.151 405.257 329.877L381.992 370.135C378.683 375.861 372.568 379.388 365.95 379.388L319.419 379.388C312.802 379.388 306.687 375.861 303.378 370.135L280.112 329.877C276.804 324.151 276.804 317.097 280.112 311.371L303.378 271.113C306.687 265.388 312.802 261.86 319.419 261.86L365.95 261.86Z" fill="#F2F6FF"/>
<path d="M141.198 261.86C147.816 261.86 153.931 265.388 157.24 271.113L180.505 311.371C183.814 317.097 183.814 324.151 180.505 329.877L157.24 370.135C153.931 375.861 147.816 379.388 141.198 379.388L94.6677 379.388C88.0499 379.388 81.9348 375.861 78.6259 370.135L55.3607 329.877C52.0518 324.151 52.0518 317.097 55.3607 311.371L78.6259 271.113C81.9348 265.388 88.0499 261.86 94.6677 261.86L141.198 261.86Z" fill="#00FFFF"/>
</svg>
